<?xml version="1.0" encoding="utf-8"?>
<!-- Generator: Adobe Illustrator 21.1.0, SVG Export Plug-In . SVG Version: 6.00 Build 0)  -->
<svg version="1.1" id="レイヤー_1" xmlns="http://www.w3.org/2000/svg" xmlns:xlink="http://www.w3.org/1999/xlink" x="0px"
	 y="0px" viewBox="0 0 173.1 185.6" style="enable-background:new 0 0 173.1 185.6;" xml:space="preserve">
<style type="text/css">
	.st0{fill:#FEFEFE;}
	.st1{fill:#010101;}
	.st2{fill:#202020;}
	.st3{fill:#F9B5B4;}
	.st4{fill:#EBEBEB;}
	.st5{fill:#FABAB9;}
	.st6{fill:#141010;}
	.st7{fill:#5B5B5B;}
	.st8{fill:#FEBAB9;}
	.st9{fill:#AFAEAE;}
	.st10{fill:#FEBFBE;}
	.st11{fill:#FEC5C4;}
	.st12{fill:#FEC9C8;}
	.st13{fill:#FEC2C1;}
	.st14{fill:#FEC4C3;}
	.st15{fill:#F5C4C3;}
	.st16{fill:#F7C3C2;}
	.st17{fill:#FECECD;}
	.st18{fill:#FEC7C6;}
	.st19{fill:#FEC6C5;}
	.st20{fill:#FAC1C0;}
	.st21{fill:#C49C9B;}
	.st22{fill:#FABCBB;}
	.st23{fill:#FEBEBD;}
	.st24{fill:#FECCCB;}
	.st25{fill:#FEC8C7;}
	.st26{fill:#F4B9B8;}
	.st27{fill:#373030;}
	.st28{fill:#FED0CF;}
	.st29{fill:#F0B3B2;}
	.st30{fill:#FECFCE;}
	.st31{fill:#FECAC9;}
	.st32{fill:#F8BDBC;}
	.st33{fill:#EDC8C8;}
	.st34{fill:#3088D3;}
	.st35{fill:#060404;}
	.st36{fill:#080606;}
	.st37{fill:#1F1616;}
	.st38{fill:#1D1412;}
	.st39{fill:#1F1716;}
	.st40{fill:#201817;}
	.st41{fill:#191212;}
	.st42{fill:#523C3C;}
	.st43{fill:#1C1312;}
	.st44{fill:#362727;}
	.st45{fill:#443737;}
	.st46{fill:#E4B0AF;}
	.st47{fill:#FCB8B7;}
	.st48{fill:#F6BCBB;}
	.st49{fill:#A07574;}
	.st50{fill:#1D1515;}
	.st51{fill:#C79190;}
	.st52{fill:#010100;}
	.st53{fill:#C5C6C6;}
	.st54{fill:#F5B9B8;}
	.st55{fill:#322525;}
	.st56{fill:#9E7373;}
	.st57{fill:#0C0909;}
	.st58{fill:#0B0808;}
	.st59{fill:#E2A5A4;}
	.st60{fill:#F4C0BE;}
	.st61{fill:#E4A6A5;}
	.st62{fill:#FEB9B8;}
	.st63{fill:#221C1B;}
	.st64{fill:#735555;}
	.st65{fill:#C89291;}
	.st66{fill:#FEC0BF;}
	.st67{fill:#B28180;}
	.st68{fill:#1C1515;}
	.st69{fill:#FEBDBC;}
	.st70{fill:#FABDBC;}
	.st71{fill:#5B4241;}
	.st72{fill:#030202;}
	.st73{fill:#E9AEAD;}
	.st74{fill:#DEA5A4;}
	.st75{fill:#FEC6C6;}
	.st76{fill:#241B1B;}
	.st77{fill:#FEC2C0;}
	.st78{fill:#F2B3B2;}
	.st79{fill:#BA8787;}
	.st80{fill:#171111;}
	.st81{fill:#050303;}
	.st82{fill:#755554;}
	.st83{fill:#FEC3C2;}
	.st84{fill:#936B6B;}
	.st85{fill:#FDBAB9;}
	.st86{fill:#FEBBBA;}
	.st87{fill:#FEC1C0;}
	.st88{fill:#0D0808;}
	.st89{fill:#C6908F;}
	.st90{fill:#030000;}
	.st91{fill:#211818;}
	.st92{fill:#191919;}
	.st93{fill:#494949;}
	.st94{fill:#0E0E0E;}
	.st95{fill:#636363;}
	.st96{fill:#F2F2F2;}
	.st97{fill:#FCFDFE;}
	.st98{fill:#2883D1;}
	.st99{fill:#2983D2;}
	.st100{fill:#E4B1B0;}
	.st101{fill:#7C5C5C;}
	.st102{fill:#DEAEAD;}
	.st103{fill:#483434;}
	.st104{fill:#A77A7A;}
	.st105{fill:#FEE3E1;}
	.st106{fill:#CC9695;}
	.st107{fill:#A27776;}
	.st108{fill:#CD9897;}
	.st109{fill:#FBA28D;}
	.st110{fill:#2B1F1F;}
	.st111{fill:#FEB39C;}
	.st112{fill:#221716;}
</style>
<g>
	<g>
		<path class="st0" d="M164.1,111.4c-0.8-1.2-1.1-2.7-0.9-4.1c-1.6-2.1-1.4-5.5,0.6-7.2c0,0,0-0.1,0-0.1c-0.7-2.8-1.4-5.5-2-8.3
			c-0.2-0.8-0.2-1.6,0-2.3c-4-1.5-4-8,0.1-9.4c-0.6-0.8-1-1.7-1.1-2.7c-0.6-0.8-1-1.8-1-2.9c-2.6-1.5-3-5.2-1.3-7.5
			c0-1.4,0.4-2.7,1.3-3.7c0-0.6-0.1-1.2-0.1-1.8c-0.4-0.5-0.7-1-0.9-1.6c-0.1-0.3-0.2-0.7-0.4-1c0,0-0.1,0-0.1,0
			c-2.1,0-3.5-1.1-4.2-2.5c-1.9-0.9-2.8-3.1-2.6-5.1c-0.1-1.5,0.4-3,1.4-4.1c0-0.1-0.1-0.2-0.1-0.2c-0.1,0-0.2-0.1-0.3-0.1
			c-3.4-1.7-6.6-3.1-9.3-5.8c-1.4-1.4-1.8-3.5-1.1-5.3c-0.4-0.6-0.6-1.4-0.7-2.2c-0.2-2.3-1-4.4-2.2-6.3c-0.2,0.1-0.3,0.1-0.5,0.1
			c-1.9,0.3-3.8,0.6-5.7,1c-2.8,0.5-5.3-0.8-6.2-3.5c-0.4-1.2-0.2-2.5,0.4-3.6c-0.4-0.7-0.6-1.4-0.6-2.4c0-0.3,0-0.6,0-0.9
			c-1.7,0.1-3.4,0.1-5.1,0c-0.8,1.1-2.1,1.9-3.9,1.9c-2.7,0-4.3-1.8-4.7-3.8c-0.9-0.5-1.7-1.2-2.2-2c-1.8,0.3-3.4,0.1-5.1-0.2
			c-0.8,1.2-2.1,2.1-4,2.1c-2.3,0-3.8-1.3-4.4-2.9c-1.4,0.1-2.8,0.3-4.3,0.2c-1.8-0.1-3.1-1-3.9-2.2c0.4,2.8-1.2,5.9-4.8,5.9
			c-3.6,0-5.2-3.1-4.8-5.9c-0.4,0.5-0.9,0.9-1.6,1.1c-0.3,1.3-1,2.4-2.2,3.1c0,2.5-1.6,5-4.8,5c-3.1,0-4.7-2.3-4.8-4.7
			c-0.4,0.6-0.9,1.2-1.7,1.7c-1.1,0.7-2.3,1.3-3.4,1.9c0.2,1.7-0.2,3.4-1.5,4.6c-0.5,1.9-2,3.6-4.6,3.6c-2.4,0-3.9-1.4-4.5-3.2
			c-0.1,0.4-0.3,0.7-0.5,1.1c-0.8,1.5-1.8,2.8-2.9,4.1c1.7,3,0.3,7.7-4.1,7.7c-1.2,0-2.1-0.3-2.9-0.9c-2.5,2.2-5.1,4.4-7.4,7
			c1.3,1.1,2,2.8,1.4,4.9c-0.3,1.1-0.8,2.2-1.3,3.3c-0.1,1.8-1,3.6-2.9,4.4c-1.8,2.3-3.9,4.4-5.9,6.4c3.3,2.2,2.8,8.3-1.7,9.1
			c-0.6,2.1-1.5,4.2-2.4,6.2c1.8,0.8,3.4,2.6,3.1,4.6c-0.2,1.9-0.6,3.6-1.2,5.3c-0.3,0.8-0.5,1.5-0.7,2.3c0,0.1,0,0.3-0.1,0.4
			c0,0.3,0,0.7,0,1c0.2,2.6-2.2,4.8-4.6,5c0.2,1.7,0.2,3.4,0.3,5.1c2.2,0.8,3.9,3,3.5,5.9c-0.1,0.8-0.3,1.6-0.4,2.4
			c1.1,1,1.8,2.4,1.9,3.9c0.4,3.7-0.8,7.2-2.3,10.5c-0.3,0.6-0.8,1.1-1.3,1.5v3.8c2.3,0.2,4.6,1.8,4.7,4.8c0.1,2.9,0,5.8-0.2,8.6
			c2.1,0.4,3.9,2,3.9,4.7c0,2,0,4.1,0,6.1c1.8,0.3,2.9,1.5,3.5,3c1.8,1.6,2.1,4.5,1,6.6c1.1-0.2,2.2,0,3.1,0.7
			c0.5,0.3,0.9,0.6,1.4,1c0.8-0.8,1.9-1.3,3.4-1.3c0.7,0,1.3,0.1,1.9,0.3c0,0,0.1,0,0.1,0c4.6,0,5.9,5,4,7.9
			c0.1,0.1,0.1,0.1,0.2,0.2c0,0,0,0,0,0c0.7-0.3,1.4-0.5,2.1-0.5c2.7,0,5.4,0.4,8,1.2c2.2,0.7,3.5,2.6,3.6,4.7
			c1.5,0.5,2.9,1.1,4.4,2c0.2-0.1,0.4-0.2,0.5-0.3c-0.1-2.6,1.5-5.3,4.8-5.3c3.5,0,5.1,2.9,4.8,5.6c0.2,0,0.3,0,0.5,0.1
			c0.4-2.1,2-4,4.7-4c3,0,4.6,2.2,4.8,4.5c0.6-1.8,2.1-3.2,4.5-3.2c0.5,0,0.9,0.1,1.4,0.2c0.4-0.1,0.8-0.2,1.3-0.2
			c0.7,0,1.4,0.1,1.9,0.4c0.8-0.6,1.8-1,3.1-1c3.8,0,5.4,3.5,4.7,6.3c0.2,0,0.4,0,0.5,0c-0.3-2.7,1.3-5.7,4.8-5.7
			c0.5,0,1,0.1,1.5,0.2c0.5-0.1,1-0.2,1.5-0.2c1.7,0,2.9,0.7,3.7,1.7c0.2-0.8,0.7-1.5,1.3-2.1c0.5-2,2-3.6,4.7-3.6
			c0.7,0,1.4,0.1,2,0.4c1.5,0.2,2.6,0.9,3.3,1.9c0.5-0.2,1.1-0.3,1.8-0.3c0.3,0,0.6,0,0.9,0.1c0.4-0.5,1-0.8,1.6-1.1
			c0.7-0.4,1.5-0.7,2.6-0.7c3.2,0,4.8,2.4,4.8,4.9c0.1-0.3,0.2-0.6,0.4-0.9c-0.1-1.2,0.1-2.4,0.7-3.5c-0.4-2.8,1.1-5.9,4.7-5.9
			c1,0,1.9,0.3,2.6,0.7c0.2-0.4,0.5-0.8,0.9-1.1c-1.5-2.8-0.4-7,3.4-7.5c0-1.9,0.9-3.9,2.8-4.7c0.2-0.4,0.4-0.8,0.7-1.2
			c-0.8-2.6,0.5-5.9,3.6-6.5c0-0.2,0-0.3,0.1-0.5c-0.1-0.3-0.1-0.6-0.1-0.9c0-2.9-0.1-5.7,1.3-8.4c0.1-0.4,0.2-0.8,0.4-1.1
			c1.2-2.5,1.3-5.4,1.3-8.1c0-1.7,0.7-3,1.8-3.8c-1.3-2.5-0.5-6.1,2.3-7.2c0-0.3,0-0.7-0.1-1.4C161.5,113.8,162.6,112.3,164.1,111.4
			z"/>
		<path class="st1" d="M143.7,167.4c0.2-0.2,0.3-0.4,0.5-0.6c0,0,0-0.1,0-0.1c1.4-4.5,3.5-8.6,5.8-12.8c1.1-2.1,1.8-4.4,3.7-5.9
			c1.3-1.1,2.6-2.2,2.6-3.8c0-4.6-0.2-9,4.4-12c1.4-0.9,0.9-3,0.5-4.5c-0.4-1.7-0.7-3.5-1.6-4.9c-1.4-2.3-0.6-3.5,1.4-4.4
			c3.9-1.8,5-5.2,3.3-8.6c-2-4.2-3-7.4,1.1-11c1.3-1.2,0.8-3.8,0.2-5.8c-0.8-2.7-3-4.2-5-5.8c-1.3-1.1-2.4-1.8-0.8-3.7
			c2.2-2.7,2-5.7,0.1-8.8c-1.5-2.4-2.4-5-1.6-8.1c1.7-7,0.8-8.8-5.5-11.9c-0.6-0.4-1.9-0.1-1.5-1.9c1.4-6.8,1-7.7-5.5-10.2
			c-3.2-1.2-4.6-2.3-3.7-6.4c1.7-8-0.8-11.3-7.1-9.8c-5.8,1.4-6.8-1.4-7.6-5.6c-0.1-0.8-0.3-1.7-0.6-2.5c-1-2.4-2.6-3.8-5.4-2.6
			c-1.3,0.6-2.7,0.8-4,1.5c-2.2,1.1-3.8,1.6-4.4-1.7c-0.6-3.2-2.9-3.6-5.6-2.5c-1.5,0.6-3,0.9-4.4,1.7c-2.7,1.6-4.2,1.3-5.9-1.7
			c-3-5.3-6.3-5.1-9.7,0c-0.9,1.2-1.7,2.5-2.6,3.9c-0.4-0.5-0.8-0.8-0.9-1.2c-0.6-2.2-1.3-4.4-3.9-4.6c-2.6-0.2-3.4,2.1-4.6,3.9
			c-0.3,0.5-0.6,1-0.8,1.5c-1.2,2.6-2.3,3.3-5,1.2c-5.8-4.5-8.4-3.3-10,3.8c-1.2,5.5-1.2,5.5-6.2,3.3c-5.6-2.4-7.9-1.2-7.9,4.7
			c0,3.8-0.9,6.3-5.4,5.7c-0.7-0.1-1.5-0.1-2.2,0c-4.2,0.3-5.9,2-5.9,6.3c0,3.1-0.2,6.1,0.1,9.1c0.2,2.2-0.5,2.9-2.5,3.6
			c-6.5,2.3-7.5,4.3-6.2,10.9c0.3,1.2,0.4,2.3,0.8,3.4c0.6,1.5,0.1,1.8-1.3,2.3c-5.1,1.6-5.7,3.3-3.6,8c2.3,5.1,4,10.1-1.1,14.7
			c-1.9,1.6-2.9,4.5-1.7,6.3c2.9,4.7,3.5,9.2,2.9,14.8c-0.3,2.6-0.3,5.1-1.1,7.8c-0.7,2.4-2.7,5.6,1,7.2c3.4,1.4,2.8,3,1.9,5.8
			c-0.8,2.4-3.1,6.1,1,7.9c2.4,1,2,2.1,1.6,3.9c-0.9,4-0.6,7.5,4.7,8.1c2.1,0.3,2,2,2.3,3.6c1.2,7.5,1.3,7.7,8.2,5.2
			c2.9-1,3.8-0.6,4.6,2.4c2,7.4,4.2,8.2,11.2,4.9c1.3,1.3,1.5,3.5,2.4,5.1c1.6,0.4,3.1,0.9,4.6,1.8c2.9-0.5,4.8-2.7,6.4-5.4
			c3.6,6.1,4.1,6.4,10.5,3.9c1.3-0.5,2.2-0.3,3,0.6c3,3.3,5.9,2.4,8.6-0.2c1.4-1.3,2.2-1.5,3.8,0c3,3,6.4,3.6,9.6-0.1
			c1.2-1.4,2.4-1.9,4.2-0.3c2.3,2,4.7,1,5.7-1.4c1.9-4.3,3.9-2.9,6.2-0.7c1.4,1.3,3.6,2,4.5,0.4c2-3.5,4.5-1.8,7-1.5
			c1,0.6,2,0.6,2.8,0.1c0.6-0.6,1.1-1.3,1.7-2c0.2-2.3,1.8-4.4,4.8-4.4c0.7,0,1.4,0.1,1.9,0.4c0.1,0,0.3,0,0.4,0
			C143.2,167.7,143.5,167.6,143.7,167.4z"/>
		<path class="st2" d="M131.4,173.6c1,0,2,0,3.1,0.1c0,1-0.3,1.6-1.4,1.6C131.9,175.2,131.7,174.4,131.4,173.6z"/>
		<path class="st3" d="M161.8,91.7c-1.7-1.6-3.7-2.8-6.2-2.6c-1.8,0.2-1.9-0.7-1.2-1.6c1.5-1.8,1.7-4.5,4-5.8c0.4-1.3-0.5-2.7,0-4
			c-0.4-2.2-2.8-2.6-3.7-4.4c-0.9-1.4-1.8-2.7-0.5-4.3c1.4-1.1,2-2.7,2.5-4.3c-0.1-1.5-0.2-3-0.9-4.3c0.2-2.2-1.7-2.2-3.1-2.7
			c-2.9-1.1-5.4-2.3-2.7-6c1.2-1.7,0.7-3.1-1.1-3.8c-2.1-0.8-3.5-2.5-6.2-2.7c-4.5-0.4-5-2.2-3.7-6.8c0.7-2.5,1.9-4.8,1.3-7.5
			c-2.9-1.5-6-0.9-9.1-0.4c-1.3,0.2-2.7,1.1-3.9-0.4c-2.5-0.3-1.4-2.3-1.8-3.6c-0.6-1.8-0.7-3.5,0-5.2c0.2-3.8-1.7-4.2-4.4-2.3
			c-2.2,1.5-4.2,3.2-6.1,5c-2,1.8-2.5,0.3-3.2-1.2c-0.3-0.2-0.7,0.7-0.6,0.3c0.2-1.1-0.5-2.5,0.5-3.5c-0.2-4.9-1.1-5.5-5.2-3.2
			c-2.3,1.3-4.9,2.1-6.6,4.6c-1,1.4-3.4,3-4-1c-0.3-2.2-1.4-4.3-2.2-6.5c-0.1-0.2-0.2-0.3-0.2-0.5c-0.2,0-0.3,0-0.5,0
			c-0.4,0-0.8-0.1-1.2-0.2c-0.1,0.1-0.1,0.2-0.2,0.3c-1.3,2.8-4.6,3.8-5.4,6.9c-0.2,1-0.3,2.3-1.7,2c-1.1-0.2-1.3-1.2-1.5-2.3
			c-0.5-2.2-2.6-3.8-4.3-4c-1.6-0.2-1.9,2.6-2.5,4.1c-0.3,0.8-0.3,1.7-0.5,2.5c-1.3,5.2-1.3,5.2-5.4,1.6c-1-0.9-2-1.8-2.8-2.9
			c-0.6-1.9-2.1-2.8-3.7-2.6c-1.8,0.2-1.3,2.3-1.7,3.6c-0.6,1.9-1,3.9-1.6,5.8c-0.7,2.5-1.6,4.5-4.5,1.7c-1-1-2.8-1.4-4.2-2
			c-1,0.3-2.2-0.2-3,0.9c-0.6,1.2-0.4,2.5,0,3.7c0.6,2.1,0.8,4.2-0.5,6.2c-1.7,1.8-3.9,1-5.9,0.8c-1.9-0.2-3.9,0.2-5.8-0.2
			c-0.6,0.6-1.2,1.1-1.8,1.7c-0.2,0.7-0.2,1.4-0.1,2.2c0.3,2.5,0.7,5.1,1.2,7.6c0.6,3,0.7,4.9-3.4,5.7c-6.2,1.2-7.5,4.9-5,10.8
			c1,2.3,1.8,4.5,0.7,7c0.2,1.2-0.9,0.5-1.2,0.9c-1.6-0.1-3.1,0.7-4.7,0.1c-1.7,0-2.2,0.6-1.3,2.1c0.3,0.5,0.6,1,0.9,1.5
			c0.5,0.6,0.9,1.2,1,1.9c0.2,0.4,0.4,0.7,0.6,1.1c2.6,5.2,2.3,6.9-1.7,11.2c-0.8,1-1.5,2.1-2.2,3.2c-1.6,2.3-1.2,4.7,0.9,6.1
			c3.2,2.1,3.3,4.5,2,7.6c-1.2,2.9-1.5,5.5,3,5.4c-0.2,0.5-0.1,0.9-0.3,1c-3.5,2.2-3.7,6-4.6,9.3c-0.8,2.7,1.9,3.2,3.3,4.4
			c1,0.9,1.1,1.8,0.5,3.1c-0.5,1.2-1.6,2.2-1.1,3.6c0.6,1.5,0.1,3-0.2,4.4c1.7,1.1,3.4,2.3,5.6,0.8c0.6-0.4,1.5-0.4,2,0.2
			c0.7,0.9-0.1,1.6-0.7,2.1c-1.5,1.3-3.3,2.3-3.3,4.6c0.1,1.2,0.1,2.3,0.1,3.5c4.4,0.8,6.5,3.6,6.9,7.9c0.3-0.4,0.4-0.8,0.5-1.2
			c0.2,0.9,0.6,1.5,1.2,2.6c7.4-2.9,7.4-2.9,9.8,3.5c2.9,7.6,2.3,7,8.7,2.8c1.5-1.6,1.7,0.1,2.1,1.3c0.9,1.6,1.2,3.7,2.7,5
			c0.6,0.6,0.9,1.4,1.7,1.9c1.6-1.8,3.2-3.6,4.7-5.4c1.8-2.3,3.3-1.5,4.6,0.5c0.6,1,1.4,1.9,1.7,2.9c0.1,0.3,0.1,0.5,0.2,0.7
			c0.6,0.5,1,1.2,1.2,1.9c0.6,0.1,1.3-0.4,2.6-1.7c3.6-3.7,5.4-3.2,8.4,1.2c0.4,0.5,0.8,0.9,1.2,1.1c0.5-0.4,1.2-0.6,2-0.7
			c0.1-0.2,0.2-0.4,0.3-0.7c0.4-1.1,0.8-2,1.8-2.7c0.8-0.7,1-2.2,2.6-1.7c2.4,0.1,3.8,1.3,4.8,3.4c0.2,0.5,0.5,0.9,0.8,1.3
			c0.9,0.3,1.6,0.9,2.1,1.6c1.1,0.2,2.3-0.7,3.4-2.8c1.4-2.6,3-2.8,5.3-1.6c2.4,1.5,3.6-0.8,5.2-1.8c1.2-2.2,2.9-2.2,4.7-1.1
			c2.2,1.3,4.1,2.2,6.4-0.4c1.8-2,4.3-1.2,6.3,0c2.4,1.4,4.1,1.4,5-1.6c0.2-0.8,0.9-1.4,1.4-2.1c1.4-1.2,3.5-0.6,4.9-1.7
			c1-1,0.9-2.2,0.5-3.4c-1.4-1.5-3.4-2.1-5-3.3c-1.3-0.9-2.9-1.6-3.5-3.3c-0.5-1.3-0.2-2.5-0.1-3.8c-0.1-1.9,0.6-3.6,1.4-5.3
			c0.4-0.8,0.5-1.7,0.9-2.3c0.3-0.4,0.4,0.8,0.9,0.9c1,0.9,2.3,0.7,3.4,1.1c0.7,0.1,1.6,0,2.1,0.4c4.9,3.8,8.5,3.2,11.7-2
			c-0.2-1.2-0.9-2.4,0.1-3.5c0.5-2.2-1.7-5.7,1.1-6.6c0.9-0.3,1.5-0.6,2.1-0.9c0.2-1.5,0.3-3,0.3-4.5c0-1,0.2-1.8,0.7-2.5
			c-0.2-0.4-0.4-0.9-0.6-1.3c-1.4-2.9-1.8-5.6,1.6-7.5c0.6-1.7,3-2.3,2.7-4.5c0.4-2.8-0.7-5.1-2.6-7c-1.2-0.7-0.9-1.5-0.2-2.4
			c0.7-1.5,2.4-2,3.4-3.2c0.3-0.4,0.6-0.8,0.9-1.2C162.9,96.2,162.4,93.9,161.8,91.7z"/>
		<path class="st3" d="M33.6,156.5c-0.5,0.3,0-0.3,0.1,0C33.7,156.5,33.7,156.5,33.6,156.5z"/>
		<path class="st4" d="M141,147.9c5,3.3,5.1,3.7,0.9,10c-1.7,2.7-3.1,0.5-4.6-0.4c-0.7-0.7-1.8-1-1.7-2.2c1-1.2,2.8-1.1,3.8-2.3
			c1-1,0.8-2.3,0.8-3.6C140.4,148.9,140.5,148.3,141,147.9z"/>
		<path class="st5" d="M140.3,30.7c-4,0-8-0.2-12,0.8c-1,0.3-3.2,0.6-1.1-1.6c2.8-0.4,5.6-1.1,8.4-1.2
			C137.3,28.6,139.7,27.7,140.3,30.7z"/>
		<path class="st6" d="M137.6,157.1c1.5,0.3,2.5,2.5,4.4,0.9c0.2,0.6,0.5,1.1,0.7,1.7c0.3,0.3,0.4,0.6,0.3,1c-0.3,0.2-0.7,0.3-1,0
			c-2.2,0-3.8-1.1-5.2-2.7C136.5,157.1,136.7,156.7,137.6,157.1z"/>
		<path class="st7" d="M141,147.9c0,0.7,0,1.5-0.1,2.2c-0.3,0.8-0.2,1.9-1.5,2.2c-0.4,0-0.7-0.1-1.1-0.2c-0.2-0.3-0.4-0.6-0.4-1
			c0-0.7,0-1.4-0.4-2c-0.2-0.3-0.3-0.7-0.3-1c0.1-0.8,0.5-1.4,1.2-1.7c0.4-0.1,0.7,0,1,0.4C140,147.1,140.5,147.5,141,147.9z"/>
		<path class="st8" d="M49.3,32.4c1.7,2.3,0.8,4.2-0.9,6.1c-0.4-0.4-0.4-0.8-0.1-1.2c0-1.6,0.1-3.2,0.1-4.9C48.7,32,49,32,49.3,32.4
			z"/>
		<path class="st9" d="M139.5,146.6c-0.4,0.1-0.8,0.3-1.3,0.4c-1.1,0.4-2.1,1.6-3.4,0.6c-0.6-0.8-0.4-1.6-0.2-2.4
			c0.4-0.7,0.9-1.4,1.8-1.5c1.2,0.4,2.3,0.9,2.8,2.2C139.4,146.1,139.5,146.4,139.5,146.6z"/>
		<path class="st10" d="M48.3,37.3c0,0.4,0.1,0.8,0.1,1.2c-1.4,2.7-3.4,1.1-5.2,0.8C43,39.1,42.9,39,43,38.8s0.2-0.3,0.3-0.3
			C45,38.3,47,39,48.3,37.3z"/>
		<path class="st11" d="M48.5,27.2c-0.1,0.1-0.1,0.1-0.2,0.2c-0.8,1.6-0.5,3.4,0.1,5h0.9v-4.3C49.5,27.3,49.3,26.9,48.5,27.2z"/>
		<path class="st12" d="M23.5,136.3c-0.1,0.8-0.7,1.6-0.9,2.5c0,0.3,0,0.5,0,0.8c0.1,0.4,0.3,0.8,0.7,1.2
			C25.7,139.3,24.2,137.8,23.5,136.3z"/>
		<path class="st13" d="M137,165.8c0.7-2,2.8-1.1,4.1-1.9c0.4,0.3,1,0.4,1.1,1C140.6,166,138.8,165.9,137,165.8z"/>
		<path class="st14" d="M33.7,159.8c0.1-1.2,0.2-2.4,0.3-4.1c1.1,2.1,0.2,4.1,1.5,5.6C33,163,33.9,160.7,33.7,159.8z"/>
		<path class="st15" d="M156.7,64.4c-1.5-1.2-0.7-2.9-0.9-4.3C157.5,61.3,157.8,62.7,156.7,64.4z"/>
		<path class="st16" d="M162.5,112.9c-0.1-0.3-0.2-0.6-0.5-1c-0.6,1.7-2.8,2.4-2.7,4.5c0.6-0.6,1.6-0.9,2.4-1.4
			C161.7,114.2,162,113.5,162.5,112.9z"/>
		<path class="st17" d="M37.1,38.5c-0.1,0.1-0.3,0.2-0.4,0.4c2.1,1.1,4.4,0.2,6.6,0.5v-0.8C41.2,38.1,39.2,37.9,37.1,38.5z"/>
		<path class="st18" d="M158.4,81.4c-0.8-1.3-1.5-2.7,0-4C159.1,78.8,159.9,80.1,158.4,81.4z"/>
		<path class="st19" d="M154.6,73.1c-2.6-1.2-2.3-2.6-0.5-4.3C153.5,70.3,154.7,71.6,154.6,73.1z"/>
		<path class="st12" d="M26.8,148.4c-0.1,0.3-0.3,0.6-0.5,0.9c0,0.7,0,1.4,0,2.2c0.1,0.2,0.3,0.3,0.6,0.5
			C28,150.7,28.1,149.5,26.8,148.4z"/>
		<path class="st20" d="M108,172.7c2.1,0.5,3.3-1.6,5.2-1.8c0,1.3-0.9,1.9-1.8,2.6c-0.8,0.8-1.6,0.7-2.5,0.1
			C108.7,173.2,108.3,173,108,172.7z"/>
		<path class="st21" d="M146.6,154.1c-0.5-1.2,0-2.2,0.8-3c0.1-0.1,0.9,0.2,1,0.4C148.8,153,148.2,153.9,146.6,154.1z"/>
		<path class="st22" d="M53.9,167.6c-0.9-0.6-0.6-1.3,0.2-1.5c1.8-0.4,2,1,2.1,2.4C55.4,168.2,54.7,167.9,53.9,167.6z"/>
		<path class="st23" d="M28.3,73.8c0.2,0.2,0.3,0.4,0.5,0.6c-0.4,0.1-0.8,0.3-1.2,0.4c-1.5,0.5-3.1,0.8-4.6-0.2
			C24.7,73.5,26.6,74.5,28.3,73.8z"/>
		<path class="st24" d="M125.4,26.3c-1.2-1.7-1.3-3.5,0-5.2C126,22.9,126,24.6,125.4,26.3z"/>
		<path class="st25" d="M48.7,26.9c-0.1,0.1-0.2,0.2-0.3,0.4c0.3,0.3,0.6,0.6,0.9,0.9c1-0.1,2,0.1,2.5-0.8
			C50.8,26.7,49.8,25.8,48.7,26.9z"/>
		<path class="st3" d="M142.7,160.3c-0.1-0.2-0.1-0.5,0-0.7c1.3,1.7,1.2,3.3,0.1,5C142.1,163.2,142.2,161.7,142.7,160.3z"/>
		<path class="st26" d="M159.3,104.9c-1.3,1-1.2-0.5-1.4-0.9c-0.5-1.1,0.4-1.3,1.2-1.5C159.2,103.3,159.3,104.1,159.3,104.9z"/>
		<path class="st27" d="M139.3,145.9c-0.9-0.5-1.8-1.1-2.8-1.6c0-0.7,0.6-0.7,1.1-1c0.9,0.6,2.2,0.5,2.7,1.6
			C140,145.2,139.6,145.5,139.3,145.9z"/>
		<path class="st14" d="M23,74.7c1.5,0.1,3.1,0.1,4.6,0.2c-1.7,1.3-3.4,1.3-5.1,0C22.6,74.6,22.8,74.5,23,74.7z"/>
		<path class="st28" d="M142.7,160.3c0,1.4,0,2.9,0,4.3c-0.1,0.3-0.3,0.4-0.6,0.3c-0.4-0.3-0.8-0.7-1.1-1c1.2-0.9,0.7-2.2,0.9-3.4
			C142.2,160.5,142.5,160.4,142.7,160.3z"/>
		<path class="st11" d="M111.8,22.6c-0.1,0.3-0.1,0.6-0.3,0.8c-0.3,0.4-0.7,0.4-0.7-0.1c0-1.3-0.5-2.8,0.9-3.9
			C112.3,20.5,112.1,21.6,111.8,22.6z"/>
		<path class="st29" d="M109,173.5c0.8,0,1.6,0,2.5-0.1c-0.2,0.8-0.1,1.8-1.4,1.7C109,175,109.2,174.1,109,173.5z"/>
		<path class="st30" d="M154,143.2c-1.2-1.2-1.2-2.4,0.1-3.5C154.7,140.9,154.6,142,154,143.2z"/>
		<path class="st31" d="M70.4,23.7c-1.5-0.4-2.4-1.4-2.8-2.9C69.4,20.9,70.3,21.9,70.4,23.7z"/>
		<path class="st32" d="M89.2,172.5c0.3-1.5,0.5-2.9,2.6-1.7C90.9,171.5,90.4,172.5,89.2,172.5z"/>
		<path class="st33" d="M58.9,173.5c1.2,0.1,1.7,0.8,1.7,1.9C58.7,176,59,174.5,58.9,173.5z"/>
		<path class="st34" d="M55.4,131.8c0-16.2,3.3-19.6,18.4-19.8c3.3,0,6.6,0.2,9.9,0.8c6.7,1.1,10.1,4.6,10.6,11.5
			c0.4,4.6,0,9.2-0.8,13.8c-0.7,4.2-4.1,5.8-7.6,6.8c-4.9,1.3-10,1.2-15,0.8c-1.4-0.1-3.5-1.6-4,0.5c-0.4,2,0.6,4.2,3.1,5
			c3.1,1.1,6.2,0.7,9.4,0.5c1,0,2.3-1.4,2.8,0.6c0.5,1.8-0.6,2.6-2.2,3c-5.8,1.6-11.5,1.2-16.9-1.1c-4.9-2.1-5.8-6.9-6.7-11.4
			C55.4,138.9,55.2,134.8,55.4,131.8z"/>
		<path class="st35" d="M45,55.8c0.9-0.3,1.7-0.6,2.6-1c1.7-0.6,3.5-0.6,5.2,0c1.2,1.2,3.7,0.3,4.3,2.6c0,1.1,0.2,2.2,0.5,3.3
			c0,1.3,0.3,2.6,0.1,4c-0.1,1.9-0.9,3.7-0.5,5.6c-0.6,4.2-3.9,4.8-7.1,5.3c-3.4,0.5-6.6-0.2-8.4-3.6c-0.4-0.8-0.7-1.6-1.7-1.7
			c-0.4-0.3-0.5-0.6-0.3-1c0.2-2.6,0.2-5.3,2.1-7.5c0-0.4,1.1,0.1,0.6-0.7c-0.1-0.2-0.1-0.4-0.2-0.5c0-0.4,0.2-0.7,0.5-0.9
			c1.4,0.2,2.6-0.9,4-0.9c1.9,0.9,1.7,2.5,1.5,4.1c-0.2,0.2-0.3,0.4-0.5,0.6c0.1-0.1,0.1-0.1,0.2-0.2c0.5-1.7,1.8-3.2,1.4-5.1
			c-1.1-1.1-2.9-0.4-4.1-1.5C44.8,56.5,44.8,56.2,45,55.8z"/>
		<path class="st36" d="M119.4,66.9c-1.4,2.9-3.2,5.4-6.1,7c-1.6,0.7-3.2,0.8-4.8-0.1c-0.6-0.3-1.3-0.6-1.9-1
			c-1.8-1.4-3.9-1.4-6-1.6c-2.3-3.4-2.5-6.9,0-10.3c2-1.6,4.4-0.7,6.6-1.3c1.1,0.1,2.2,0.2,3.2-0.2c1.8-2.4,3.8-3.1,6.1-0.6
			c1.2,1.5,1.9,3.5,3.8,4.5C120.4,64.7,120.3,65.9,119.4,66.9z"/>
		<path class="st37" d="M115.9,59.2c-1.8-1-3.7-2.7-4.5,1c0,0-0.3,0.1-0.4,0c-0.1,0-0.2-0.2-0.3-0.3c-1.3-1-2.6,0-3.8,0.1
			c-1.9,2-4.3,0.5-6.4,0.9c-0.7-2.7,1.9-4,2.6-6.1c0.1-0.4,0.3-0.7,0.7-0.8c3.9,1.5,8.3,0.8,12.2,2.5c1,0.5,1.8,0.6,1.7,1.8
			C117.4,59.2,116.9,59.8,115.9,59.2z"/>
		<path class="st38" d="M71.8,107c-3.6-5.7-2.9-12-2.5-18.3c0.5-0.9,0.5-2.3,2.1-2.2c3.9,0.3,7.8-0.6,11.7,0.5
			c0.1,0.3,0.1,0.5,0,0.8c-0.1,0.2-0.3,0.3-0.4,0.5c-3.2,1.6-6.8-0.2-10,1.2c-0.4,0.4-0.7,0.9-1,1.4c-0.7,2.3-0.6,4.5-0.1,6.8
			c0.3,0.7,0.6,1.4,0.8,2.2c0.3,0.7,0.4,1.5,0.6,2.2c0.4,1.8,1.6,2.8,3.3,3.3c0.7,0.3,1.4,0.7,1.7,1.5c-0.3,0.3-0.7,0.7-1,1
			c-0.7,0.5-1.6,0.8-2.5,0.7C73.4,108.5,72.5,107.9,71.8,107z"/>
		<path class="st39" d="M45,55.8c0,0.4,0.1,0.7,0.1,1.1c0.6,0.2,1,0.6,1.2,1.2c0,0.4-0.2,0.8-0.5,1c-0.9,1.2-2,1.6-3.4,1
			c-0.7-0.4-0.3-1.3-0.8-1.8c1-2.1-1.8-3.1-1.5-5.4C41.9,54,43.4,54.9,45,55.8z"/>
		<path class="st40" d="M145.3,89.3c0.3,0.4,0.9,0.8,1,1.3c0.3,1.3-2.3,9.7-3.4,11.1c-0.3,0.2-0.5,0.2-0.8,0c0.8-3.4,0.9-7,2.3-10.3
			c-0.4-0.7,0-1.3,0.4-1.9C145,89.5,145.2,89.4,145.3,89.3z"/>
		<path class="st41" d="M140.2,125.1c1.1,2.7-1,5.1-1,7.7c-0.2,1.6,1,3.8-1.6,4.6c-2-3.4,1.2-6.3,1-9.5c-0.1-1.2,0.5-2.5,0.8-3.7
			C140.2,124.1,140.8,124.2,140.2,125.1z"/>
		<path class="st42" d="M100.5,71.3c2.6-1.8,4.8-1.9,6,1.6C104.1,73.8,101.7,74.8,100.5,71.3z"/>
		<path class="st43" d="M84,94.9c0,0.3,0,0.5,0.2,0.7c0.8,1.2,0.5,2.3-0.2,3.5c-2.1,0.7-1.6,3.5-3.5,4.4c-0.7-0.2-1.1-0.6-1.2-1.3
			c0.8-3,1.7-6.1,3.9-8.4C83.9,93.8,84.4,94,84,94.9z"/>
		<path class="st44" d="M143,113.8c-0.1,1.2-0.3,2.3-0.4,3.5c-0.8,0.2-1.2-0.2-1.5-0.8c0.2-2.9,0.2-5.9,0.7-8.8
			c0.3-2.1,0.7-0.4,1.1,0.1C143.4,109.7,143.3,111.7,143,113.8z"/>
		<path class="st45" d="M42.4,61.7c-1.6,2.4-1.2,5.4-2.4,8c-1.5-2.9-1.6-5.8-0.2-8.7c0.3-0.2,0.6-0.4,1-0.6c0.5,0.1,1.1-0.1,1.6-0.1
			c0.2,0.2,0.2,0.5,0,0.7c0.2,0.2,0.2,0.3,0.2,0.5C42.5,61.6,42.5,61.7,42.4,61.7z"/>
		<path class="st8" d="M39.9,61c0.1,2.9,0.1,5.8,0.2,8.7c-0.2,0.2-0.2,0.5-0.1,0.8C37.9,67.3,36.6,64.2,39.9,61z"/>
		<path class="st46" d="M83.1,87c-3.6-0.1-7.1-0.1-10.7-0.4c-1.8-0.2-2.4,1-3.1,2.1c0-1.1-0.1-2.6,1.4-2.6
			C74.8,86.4,79.1,84.9,83.1,87z"/>
		<path class="st47" d="M150.6,127.6c-0.7,0.8-1.4,1.7-2.5,2.9c0.2-2.6-0.9-4.5-1.7-6.4c-0.6-1.5-0.7-2.8,1.6-2.5
			C147.9,124,148.9,126,150.6,127.6z"/>
		<path class="st48" d="M137.6,137.3c2-1,0.1-3.4,1.6-4.6c2.1,2.4,0.6,4.7-0.2,7.4C138.5,139,138.1,138.2,137.6,137.3z"/>
		<path class="st49" d="M101.4,157.9c0.2,0.1,0.3,0,0.5,0c1,2.6,1,5.2,0,7.8c-0.5-0.3-0.9-0.6-1.4-1
			C99.9,162.3,98.9,159.9,101.4,157.9z"/>
		<path d="M79.5,102.5c0.3,0.3,0.6,0.6,1,0.9c0.1,1.8-1.3,2.6-2.5,3.5c-0.8,0-1.5-0.2-1.9-1C76.1,103.6,77.3,102.5,79.5,102.5z"/>
		<path class="st50" d="M142.9,87.8c-0.3-3.2-0.6-6.3-0.9-9.5c0.3-0.5,0.7-0.5,1.1-0.1c1,2.2,0.5,4.6,0.9,7c0.5,0.8,0.5,1.6,0,2.5
			C143.7,88,143.3,88.1,142.9,87.8z"/>
		<path class="st51" d="M106.3,159.8c1.3,3,2.4,5.9-0.7,8.5c-0.8-1.2-0.3-2.6-0.4-4C105.7,162.8,105.5,161.2,106.3,159.8z"/>
		<path class="st52" d="M84,94.9c-0.3-0.3-0.5-0.7-0.8-1c-0.9-1.6,0-3.3-0.5-5c0-0.4,0.1-0.7,0.4-1v-0.1
			C86.4,89.3,86.6,91.5,84,94.9z"/>
		<path class="st53" d="M133.2,154.5c-1.4-1.4-0.8-2.7,0.1-4c0.5-0.9,1.2-0.8,2-0.4c1,1.4,1,2.9,0.1,4.4
			C134.6,155,133.9,155,133.2,154.5z"/>
		<path class="st54" d="M119.4,66.9c0-1.4,0-2.7-0.1-4.1c-0.4-0.5-0.4-1,0-1.5c2.2,1.7,2.5,4.7,0.6,6.6
			C119.7,67.6,119.5,67.2,119.4,66.9z"/>
		<path class="st55" d="M119.3,61.3c0,0.5,0,1,0,1.5c-2.5,0.2-2.9-1.7-3.4-3.5c0.6-0.3,1.2-0.6,1.8-0.9
			C118.3,59.3,118.8,60.3,119.3,61.3z"/>
		<path class="st56" d="M57.2,70.4c-1.5-2-1.2-4-0.2-6c0.5-0.3,0.9-0.3,1.3,0.1c0.8,1.5,0.5,2.9-0.3,4.2
			C57.7,69.3,57.4,69.9,57.2,70.4z"/>
		<path class="st57" d="M137.6,143.2c-0.4,0.3-0.7,0.7-1.1,1c-0.4,0.2-0.9,0.5-1.3,0.7c-0.3,0.4-0.6,0.4-0.9-0.1
			c0.8-2,1.5-4,2.3-6.1c0,0,0.3,0,0.6,0C138.5,140.2,135.7,142,137.6,143.2z"/>
		<path class="st48" d="M143.8,87.8c0.1-0.9,0.1-1.7,0.2-2.6c0.3-1.1,0.6-2.3,0.9-3.4c0.1,0,0.3,0,0.4,0.1c0,2.5,0,5,0,7.5l0.1,0.3
			C143.9,89.9,143.9,88.8,143.8,87.8z"/>
		<path class="st58" d="M134.3,144.9c0.3,0,0.6,0,0.9,0.1c-0.1,0.8-0.1,1.6-0.2,2.5c0.4,0.5,0.7,1,0.6,1.7c-0.1,0.4-0.3,0.8-0.6,1
			c-0.6,0.1-1.2,0.2-1.7,0.3C131.4,148.2,133.9,146.7,134.3,144.9z"/>
		<path class="st37" d="M141.8,75.1c-0.6-2-1-4-0.3-6.5c1.5,1.8,1.1,3.6,1.2,5.4C142.4,74.3,142.4,74.9,141.8,75.1z"/>
		<path class="st59" d="M150.6,127.6c-2.5-1.3-4-3-2.6-6C148.9,123.6,149.7,125.6,150.6,127.6z"/>
		<path class="st60" d="M68.2,90.4c0,2.8,0,5.6,0,8.4c-0.1,0-0.2,0-0.4,0c0-2.8,0-5.6,0-8.4C67.9,90.4,68,90.4,68.2,90.4z"/>
		<path class="st61" d="M104.7,148.4c2.1,0.8,2.1,3,2,4.4c-0.3,2.9-1.3-0.1-2,0C104,151.3,104.1,149.8,104.7,148.4z"/>
		<path class="st62" d="M74.4,107.9c0.9,0,1.7,0,2.6,0c-0.3,1.3-0.5,2.7-1.9,3.1c-1.1,0.3-1.4-0.6-1.5-1.5
			C73.6,108.8,74,108.3,74.4,107.9z"/>
		<path class="st63" d="M133.2,154.5c0.6,0,1.1,0,1.7-0.1c0.9-0.2,1.2,0.1,1,1c0.6,0.5,1.1,1.1,1.7,1.6c-0.3,0.3-0.6,0.6-0.8,0.8
			C134.9,157.4,133.6,156.4,133.2,154.5z"/>
		<path d="M127.9,158c0-2.1,0.8-3.4,2.6-3.9c0.3-0.1,1,0.3,1,0.5C131.5,157.1,128.6,156.4,127.9,158z"/>
		<path class="st64" d="M57.1,60.8c0.4-1.1-1.4-2.2,0-3.3c1.8,0.9,1.5,2.7,1.7,4.2c-0.2,0.1-0.3,0.3-0.5,0.4
			C57.4,62.1,56.5,62.1,57.1,60.8z"/>
		<path class="st65" d="M111.6,152.7c0.6,0,1.2,0,1.7,0c0.6,0.5,0.6,1.1,0.2,1.7c-0.1,1.2-0.1,2.5-1.8,2.6
			C110.9,155.6,111.1,154.2,111.6,152.7z"/>
		<path class="st66" d="M101.4,157.9c-1.8,2-0.8,4.5-0.9,6.8C99.4,162.3,98.2,159.8,101.4,157.9z"/>
		<path class="st67" d="M113.4,159.6c0.3,0,0.5,0.1,0.8,0.1c0.9,1.4,0.6,2.9,0.1,4.3c-0.6,0-1.2,0-1.8,0
			C112.2,162.4,111.1,160.7,113.4,159.6z"/>
		<path class="st66" d="M108.4,73.8c1.6,0,3.2,0,4.8,0.1c0.1,0,0.3,0,0.4,0.1c0.2,0.1,0.3,0.3,0.5,0.5c-2.2,0.6-4.4,0.2-6.7,0.2
			l-0.1-0.3C107.7,74.2,108.1,74,108.4,73.8z"/>
		<path class="st19" d="M101.9,165.7c0-2.6,0-5.2,0-7.8C103.7,160.5,103.6,163.1,101.9,165.7z"/>
		<path class="st68" d="M141.2,116.4c0.5,0.3,1,0.6,1.5,0.8c-0.3,1.1-1,2.2-0.6,3.5c0.3,0.7-0.1,1-0.7,1.1c-0.6-0.1-0.9-0.6-1-1.1
			C140.6,119.3,140.9,117.8,141.2,116.4z"/>
		<path class="st23" d="M105.6,163.9c0,1.5,0,2.9,0,4.4c-1.5-2.6-1.3-5.2-0.1-7.8C106.4,161.6,106.1,162.7,105.6,163.9z"/>
		<path class="st69" d="M113.4,159.6c-1.3,1.3-0.7,2.9-0.8,4.4C111,161.4,111.3,160,113.4,159.6z"/>
		<path class="st70" d="M113.5,154.5c-0.1-0.6-0.1-1.2-0.2-1.7c0.4,0.2,0.8,0.3,1.1,0.5c0.7,0.5,2.4,0.8,1.7,1.9
			C115.2,156.8,114.5,154.6,113.5,154.5z"/>
		<path class="st71" d="M141,62.8c-0.1,1.5,1.8,3-0.4,4.9c-0.2-1.5-0.4-2.7-0.6-4C139.8,62.8,140.1,62.6,141,62.8z"/>
		<path class="st72" d="M140.4,120.7c0.2,0.3,0.5,0.6,0.7,0.9c0.5,0.5,0.5,1.1,0.1,1.7c-0.2,0.7,0,1.6-1,1.8c-0.3-0.3-0.5-0.6-0.8-1
			C139.1,122.8,139.5,121.7,140.4,120.7z"/>
		<path class="st73" d="M58.8,61.7c1.5,2,1.4,4.1,0.2,6.2c-1.1-1.2-0.1-2.8-0.8-4.1C58.1,63,58.3,62.4,58.8,61.7L58.8,61.7z"/>
		<path class="st74" d="M143,113.8c0-2-0.1-4-0.1-6C144.1,109.7,144,111.7,143,113.8z"/>
		<path d="M103.9,54.1c-0.2,0.3-0.5,0.5-0.7,0.8c-0.6-1.1-1.1-2.1-1.8-3.3C103.5,51.4,103.5,52.9,103.9,54.1z"/>
		<path class="st75" d="M141.2,123.3c0-0.6-0.1-1.1-0.1-1.7c0.3-0.3,0.6-0.6,1-0.9c1,1.1,0.9,2.3,0.5,3.5
			C142.1,123.9,141.7,123.6,141.2,123.3z"/>
		<path class="st14" d="M84,99.1c0.1-1.2,0.1-2.3,0.2-3.5C87.2,96.9,85.3,98,84,99.1z"/>
		<path class="st76" d="M143.8,87.8c0.5,0.6,1.1,1.2,1.6,1.8c-0.3,0.6-0.6,1.2-1,1.8c-1.2-0.9-1.6-2.1-1.5-3.6
			C143.2,87.8,143.5,87.8,143.8,87.8z"/>
		<path class="st77" d="M52,77.1c-2.5,0.4-3.9,0.6-5.5,0C48.2,76.3,49.6,76.5,52,77.1z"/>
		<path class="st19" d="M74.4,107.9c0,0.7-0.2,1.2-0.9,1.6c-1.1-0.4-1.6-1.3-1.8-2.4C72.7,107.3,73.5,107.6,74.4,107.9z"/>
		<path class="st78" d="M52.8,54.9c-1.7,0-3.5,0-5.2,0C49.3,53.6,51.1,53.6,52.8,54.9z"/>
		<path class="st79" d="M112.5,148.3c-0.9,0-1.6-0.3-1.6-1.4c0.1-0.9,0.8-1,1.4-1.1C113.2,146.6,113.1,147.5,112.5,148.3z"/>
		<path class="st80" d="M141.8,75.1c0.3-0.4,0.6-0.7,0.9-1.1c0.1,1.4,0.3,2.8,0.4,4.2c-0.4,0-0.7,0.1-1.1,0.1
			C142,77.2,141.9,76.1,141.8,75.1z"/>
		<path class="st81" d="M58.8,63.7c0.1,1.4,0.1,2.8,0.2,4.2c-0.3,0.3-0.7,0.6-1,0.8c-0.1-1.5-0.1-2.9-0.2-4.4
			C57.8,63.6,58,63.3,58.8,63.7z"/>
		<path class="st82" d="M105.6,163.9c-0.1-1.1-0.1-2.3-0.2-3.4c0.3-0.2,0.6-0.5,0.8-0.7C106.2,161.2,107.2,162.7,105.6,163.9z"/>
		<path class="st83" d="M114.3,164c0-1.4-0.1-2.9-0.1-4.3C115.6,161,115.5,162.5,114.3,164z"/>
		<path class="st19" d="M152.9,137.5c-0.9-1.1-0.4-2-0.7-3.7C153.4,135.4,153.1,136.3,152.9,137.5z"/>
		<path class="st84" d="M141,62.8c-0.3,0.3-0.7,0.6-1,0.9c-0.8-0.8-0.8-1.7-0.5-2.7C140.7,61,140.7,62,141,62.8z"/>
		<path class="st85" d="M104.7,148.4c0,1.4,0,2.9,0,4.3C103.4,151.3,103.4,149.8,104.7,148.4z"/>
		<path class="st86" d="M112.5,148.3c0-0.8-0.1-1.7-0.1-2.5c1.4,0.8,1,2.1,0.9,3.3c0,0-0.5,0.1-0.5,0
			C112.6,148.9,112.6,148.6,112.5,148.3z"/>
		<path class="st87" d="M111.6,152.7c0,1.4,0.1,2.9,0.1,4.3C110.3,155.6,110.4,154.2,111.6,152.7z"/>
		<path d="M42.4,60.2c-0.5,0.5-1,0.7-1.6,0.1c0.8-0.4,0.7-1.2,0.9-1.9C42.4,58.8,42.4,59.5,42.4,60.2L42.4,60.2z"/>
		<path class="st88" d="M118.6,159.6c-0.2-0.1-0.5-0.2-0.7-0.3c0.1-0.1,0.3-0.3,0.4-0.4c0.3,0.2,0.6,0.5,0.8,0.7
			C119,159.6,118.8,159.6,118.6,159.6z"/>
		<path class="st89" d="M120.2,161.3c-0.1,0.4-0.2,1.1-0.2,1.1c-0.8,0-0.4-0.7-0.5-1.1C119.8,161.1,120,161.1,120.2,161.3z"/>
		<path class="st90" d="M118.6,159.6c0.2,0,0.3,0,0.5,0c0.1,0.3,0.2,0.6,0.4,0.9l0.1-0.1C119,160.5,118.6,160.3,118.6,159.6z"/>
		<path class="st91" d="M120.2,161.3l-0.4,0.1l-0.4-0.1c-0.1-0.3-0.1-0.6,0.1-0.8l-0.1,0.1C120,160.5,120.3,160.8,120.2,161.3z"/>
		<path class="st1" d="M142.1,101.7c0.3,0,0.5,0,0.8,0c-0.2,0.2-0.4,0.4-0.6,0.6C142.2,102.1,142.2,101.9,142.1,101.7z"/>
		<path class="st92" d="M135.9,155.4c-0.3-0.3-0.7-0.7-1-1c0-1.4,0.1-2.8,0.1-4.2c0-0.3,0-0.6,0-0.9c0.6-0.4,1,0,1.4,0.3
			c0.8,0.7,1.4,1.6,2,2.5c0.1,0.1,0.3,0.2,0.5,0.2c1-0.1,1.1,0.7,1.2,1.3C139.5,155.7,137.5,155,135.9,155.4z"/>
		<path class="st93" d="M140.2,153.6c-0.8-0.1-1.1-0.7-1.2-1.3c0.7-0.7,1.3-1.4,2-2.1C141.7,151.5,141.6,152.7,140.2,153.6z"/>
		<path class="st94" d="M136,150.3c-0.3-0.3-0.6-0.7-1-1c0-0.6,0-1.2,0-1.8c1.1-0.1,2.1-0.3,3.2-0.4c-0.3,0.4-0.5,0.8-0.8,1.2
			C137.6,149.3,137.4,150.2,136,150.3z"/>
		<path class="st95" d="M136,150.3c0.5-0.7,1-1.4,1.5-2.1l0.2,0.3c0.6,0.6,0.9,1.3,0.8,2.2c0,0.4,0,0.9,0,1.3
			C137.3,152,136.7,151.1,136,150.3z"/>
		<path class="st96" d="M138.6,150.7c-0.5-0.6-1.1-1.2-0.8-2.2C140,148.5,139.4,149.5,138.6,150.7z"/>
		<path class="st97" d="M72.5,127.7c0-2.3-1.1-3.6-3.4-3.4c-2.3,0.3-2.4,2.1-2.4,3.9c0,2.9,0,5.8,0,8.6c0,1.4-0.5,2.1-2,2.1
			c-1.2,0-2.4-0.1-2.3-1.7c0.2-4.4-0.6-8.9,0.5-13.3c1.3-4.9,6.2-6.6,10-3.2c1.7,1.5,2.3,1.5,4,0c3.8-3.4,8.6-1.7,10,3.2
			c1.2,4.4,0.3,8.9,0.5,13.3c0.1,1.7-1.1,1.7-2.3,1.7c-1.5,0-2-0.7-2-2.1c0-2.9,0-5.8,0-8.6c0-1.8-0.2-3.7-2.4-3.9
			c-2.3-0.3-3.4,1.1-3.4,3.4c0.3,2,0.6,4-0.1,6c-1.5,0.4-2.9,0.4-4.4,0C72,131.7,72.2,129.7,72.5,127.7z"/>
		<path class="st98" d="M77.1,133.7c0-2,0.1-4,0.1-6C78.2,129.7,78.4,131.7,77.1,133.7z"/>
		<path class="st98" d="M72.5,127.7c0,2,0.1,4,0.1,6C71.4,131.7,71.5,129.7,72.5,127.7z"/>
		<path class="st99" d="M76,135.4c-0.8-0.1-2.2-0.1-2.2-0.2c-0.1-1.1,0.8-0.5,1.3-0.6c0.3-0.1,0.7,0.1,1.1,0.2
			C76.1,135,76.1,135.2,76,135.4z"/>
		<path class="st36" d="M45.8,59.2c0-0.4,0.1-0.8,0.1-1.2c1.3-0.7,2.7-0.5,4.1-0.8c2.1,3.2-0.8,4.5-2.5,6.3l0,0
			C47.6,61.9,47.9,60.1,45.8,59.2z"/>
		<path class="st100" d="M52.9,65.3c0.8,1.8,1.4,3.3-0.7,4c-1,0.3-2.4,0.3-2.5-0.8C49.6,66.4,52.4,67.2,52.9,65.3z"/>
		<path class="st101" d="M50,57.3c-1.2,1.1-2.5,1.7-4.1,0.8c-0.3-0.4-0.5-0.7-0.8-1.1C46.8,56.8,48.5,56.3,50,57.3z"/>
		<path class="st102" d="M47.5,63.6c0,0.5,0.1,1.2-0.2,1.6c-0.4,0.7-0.6,1.7-1.6,1.6c-0.3,0-0.7-0.4-0.8-0.8c-0.3-1,0.4-1.6,1.1-2.1
			C46.4,63.7,47.1,63.7,47.5,63.6C47.6,63.6,47.5,63.6,47.5,63.6z"/>
		<path class="st51" d="M58.8,63.7c-0.3,0.2-0.7,0.5-1,0.7h-0.4H57c0.4-1.2-1.6-2.5,0.1-3.6c0.3,0.7,0.9,0.9,1.6,0.9
			C58.7,62.3,58.8,63,58.8,63.7z"/>
		<path class="st103" d="M48.4,71.5c1,0.5,1.2,1,0.1,1.6C48,72.5,48,72,48.4,71.5z"/>
		<path class="st104" d="M48.4,71.5c0,0.5,0,1.1,0.1,1.6C47.1,72.6,47.3,72,48.4,71.5z"/>
		<path class="st105" d="M42.4,61.7c0.1-0.2,0-0.5,0-0.7c0.3,0.1,0.6,0.2,0.9,0.3C43.1,61.4,42.7,61.6,42.4,61.7z"/>
		<path class="st30" d="M111.7,64.9c-0.2-1.3-0.2-2.4,1.3-2.2c1.3,0.2,2.2,0.9,2.1,2.2c0,1.2-0.8,2-2.2,2.1
			C110.7,67.2,113,65,111.7,64.9z"/>
		<path class="st30" d="M106.7,67.8c-1.6-0.9-3.4-1.1-2.8-3c0.2-0.5,1.3-1.2,1.6-1.1C107.4,64.6,105.9,66.3,106.7,67.8z"/>
		<path class="st106" d="M106.9,60.1c1.2-2.1,2.5-3.1,3.8-0.1C109.5,60.4,108.3,62.1,106.9,60.1z"/>
		<path class="st107" d="M102,65.8c-1.2-0.6-1.8-1.4-1.3-2.2c0.9-1.3,1.3-0.3,1.4,0.6C102.2,64.7,102,65.1,102,65.8z"/>
		<path class="st108" d="M109.8,64.4c0.7,0,1,0.4,1,1s-0.2,1.1-0.9,1.2c-0.9,0.1-0.8-0.6-0.9-1.1C108.9,65.1,109,64.5,109.8,64.4z"
			/>
		<path class="st109" d="M83.1,88.5c1.7,1.8,0.7,3.6,0.1,5.4c-1.2,2.9-2.4,5.8-3.7,8.6c-1.1,1.1-2.3,2.3-3.4,3.4
			c-2.8,0.6-3.6-1.3-4.1-3.5c0.6-2,0.1-4.1,0.3-5.7c-0.1-1-0.9-0.2-0.4-0.5c0.5,1.3,0.7,2.7-0.2,3.9c-0.3-0.7-0.5-1.4-0.8-2.1
			c-0.5-2.6-0.5-5.2,0-7.8c0.1-0.5,0.1-1,0.2-1.5C75,87.6,79.1,88.3,83.1,88.5z"/>
		<path class="st110" d="M83.1,88.5c-4,0.1-8.1,0.3-12.1,0.4c3.8-2.4,8-0.6,12-1C83.2,88.1,83.2,88.3,83.1,88.5z"/>
		<path class="st111" d="M71.7,100.2c0.1-1.5,0.2-3.1,0.3-4.6c0.6,2.3,1.3,4.6,0,6.8C71.9,101.7,71.8,101,71.7,100.2z"/>
		<path class="st112" d="M70.9,90.4c0,2.6,0,5.2,0,7.8C69.7,95.6,69.7,93,70.9,90.4z"/>
	</g>
</g>
</svg>
