<?xml version="1.0" encoding="utf-8"?>
<!-- Generator: Adobe Illustrator 21.1.0, SVG Export Plug-In . SVG Version: 6.00 Build 0)  -->
<svg version="1.1" id="レイヤー_1" xmlns="http://www.w3.org/2000/svg" xmlns:xlink="http://www.w3.org/1999/xlink" x="0px"
	 y="0px" viewBox="0 0 570.7 140.7" style="enable-background:new 0 0 570.7 140.7;" xml:space="preserve">
<style type="text/css">
	.st0{fill:#FEFEFE;}
	.st1{fill:#060505;}
	.st2{fill:#0F0D0D;}
	.st3{fill:#090808;}
	.st4{fill:#0C0B0A;}
	.st5{fill:#110E0E;}
	.st6{fill:#211C1C;}
	.st7{fill:#151111;}
	.st8{fill:#141212;}
	.st9{fill:#191515;}
	.st10{fill:#110F0F;}
	.st11{fill:#231D1D;}
	.st12{fill:#131010;}
	.st13{fill:#181515;}
	.st14{fill:#141010;}
	.st15{fill:#030303;}
	.st16{fill:#020202;}
	.st17{fill:#272121;}
	.st18{fill:#010101;}
	.st19{fill:#2F2C2C;}
	.st20{fill:#171414;}
	.st21{fill:#201B1B;}
	.st22{fill:#2E2A2A;}
	.st23{fill:#251F1F;}
	.st24{fill:#1D1818;}
	.st25{fill:#191717;}
	.st26{fill:#353333;}
	.st27{fill:#1B1616;}
	.st28{fill:#272222;}
	.st29{fill:#2A2525;}
	.st30{fill:#1E1A1A;}
	.st31{fill:#F9B5B4;}
	.st32{fill:#FCBDBC;}
	.st33{fill:#FDBEBD;}
	.st34{fill:#FEC6C5;}
	.st35{fill:#E0DFDF;}
	.st36{fill:#B18F8F;}
	.st37{fill:#ECB5B4;}
	.st38{fill:#FEC4C3;}
	.st39{fill:#181414;}
	.st40{fill:#3088D3;}
	.st41{fill:#F9A28D;}
	.st42{fill:#0B0808;}
	.st43{fill:#2D2121;}
	.st44{fill:#F8B9B8;}
	.st45{fill:#F2B2B1;}
	.st46{fill:#543D3D;}
	.st47{fill:#5B4343;}
	.st48{fill:#1F1717;}
	.st49{fill:#281D1D;}
	.st50{fill:#584040;}
	.st51{fill:#0F0A0A;}
	.st52{fill:#261A19;}
	.st53{fill:#453737;}
	.st54{fill:#6A4F4F;}
	.st55{fill:#5F4545;}
	.st56{fill:#513A3A;}
	.st57{fill:#4F3A39;}
	.st58{fill:#B68787;}
	.st59{fill:#271D1D;}
	.st60{fill:#FECDCC;}
	.st61{fill:#E4A9A8;}
	.st62{fill:#8E6867;}
	.st63{fill:#322524;}
	.st64{fill:#FEBAB9;}
	.st65{fill:#5B4B4A;}
	.st66{fill:#FCBEBD;}
	.st67{fill:#C69190;}
	.st68{fill:#3A2A2A;}
	.st69{fill:#3A2B2B;}
	.st70{fill:#D2A09F;}
	.st71{fill:#C28E8D;}
	.st72{fill:#3D2A27;}
	.st73{fill:#6E5150;}
	.st74{fill:#3D3838;}
	.st75{fill:#4A3636;}
	.st76{fill:#675D5D;}
	.st77{fill:#413737;}
	.st78{fill:#FCBBBA;}
	.st79{fill:#5E4545;}
	.st80{fill:#493535;}
	.st81{fill:#241A1A;}
	.st82{fill:#755656;}
	.st83{fill:#9C7272;}
	.st84{fill:#4B3838;}
	.st85{fill:#1A100E;}
	.st86{fill:#322525;}
	.st87{fill:#100C0C;}
	.st88{fill:#FCBAB9;}
	.st89{fill:#FDC5C3;}
	.st90{fill:#080505;}
	.st91{fill:#59413F;}
	.st92{fill:#E6A7A6;}
	.st93{fill:#D99D9C;}
	.st94{fill:#553E3E;}
	.st95{fill:#FDBEBE;}
	.st96{fill:#705353;}
	.st97{fill:#E5A7A5;}
	.st98{fill:#BA8C8B;}
	.st99{fill:#604A49;}
	.st100{fill:#FCBCBA;}
	.st101{fill:#A67A79;}
	.st102{fill:#F0B2B1;}
	.st103{fill:#FDC2C1;}
	.st104{fill:#5E4847;}
	.st105{fill:#C89291;}
	.st106{fill:#D09897;}
	.st107{fill:#916C6C;}
	.st108{fill:#2F2222;}
	.st109{fill:#B08786;}
	.st110{fill:#DFA7A6;}
	.st111{fill:#0E0E0E;}
	.st112{fill:#FCC0BF;}
	.st113{fill:#1C1414;}
	.st114{fill:#090606;}
	.st115{fill:#F9C6C5;}
	.st116{fill:#A37D7C;}
	.st117{fill:#362626;}
	.st118{fill:#777777;}
	.st119{fill:#4F4F4F;}
	.st120{fill:#333434;}
	.st121{fill:#FAFCFD;}
	.st122{fill:#2A84D2;}
	.st123{fill:#271915;}
	.st124{fill:#AE8585;}
	.st125{fill:#CEA4A3;}
	.st126{fill:#564040;}
	.st127{fill:#171111;}
	.st128{fill:#433231;}
	.st129{fill:#9A7A79;}
	.st130{fill:#1D1515;}
	.st131{fill:#372828;}
	.st132{fill:#C59595;}
	.st133{fill:#F6CCCB;}
	.st134{fill:#4B3737;}
	.st135{fill:#1A1312;}
	.st136{fill:#FECECD;}
	.st137{fill:#E5B3B2;}
	.st138{fill:#150F0F;}
	.st139{fill:#715252;}
	.st140{fill:#8D6A69;}
	.st141{fill:#0D0909;}
	.st142{fill:#110C0C;}
	.st143{fill:#382A29;}
	.st144{fill:#221919;}
	.st145{fill:#725353;}
	.st146{fill:#4A3635;}
	.st147{fill:#644A49;}
	.st148{fill:#CBCBCB;}
	.st149{fill:#D3D3D3;}
	.st150{fill:#010202;}
	.st151{fill:#120D0D;}
	.st152{fill:#FF807D;}
	.st153{font-family:'Nyashi-90ms-RKSJ-H';}
	.st154{font-size:52.8454px;}
	.st155{fill:none;stroke:#FFFFFF;stroke-miterlimit:10;}
	.st156{fill:#FFFFFF;}
	.st157{font-family:'FranklinGothic-Medium';}
	.st158{font-size:60px;}
	.st159{fill:none;stroke:#231815;stroke-miterlimit:10;}
</style>
<g>
	<path class="st0" d="M126.1,74.5c-0.3-1.3-0.2-2.7,0.4-3.8c-1.1-0.7-1.8-1.7-2.1-2.9c-4.7-0.8-5.2-7.4-1.5-9.3
		c-4.2-1.1-4.6-7.1-1.2-9.1c-1.3-1.5-1.5-3.7-0.8-5.5c-0.2,0-0.4,0-0.6,0c-0.6,0-1.1-0.1-1.6-0.3c-0.1,0-0.1,0-0.2,0
		c-4.8,0-6-5.6-3.6-8.4c-1.1-0.3-2-1-2.6-1.8c-0.1,0-0.2,0-0.3,0c-5,0-6.1-6.1-3.3-8.8c0-0.2,0-0.4,0-0.7c-1.2-0.7-1.9-2-2.2-3.3
		c-0.1,0-0.2,0-0.3,0c-1.3,0-2.3-0.4-3.1-1.1c-0.8,0.8-1.9,1.3-3.4,1.3c-3.9,0-5.4-3.7-4.6-6.6c-0.3-0.4-0.6-0.8-0.8-1.2
		c-0.6-0.3-1.1-0.8-1.5-1.3c-0.7,1.4-2.1,2.4-4.1,2.4c-1.3,0-2.3-0.4-3-1c-1.2-0.6-2-1.8-2.4-3C82.6,10,82,9.8,81.5,9.4
		c-0.8,0.7-1.9,1.2-3.2,1.2c-0.1,0-0.1,0-0.2,0c-0.1,0.1-0.2,0.2-0.3,0.3c-0.8,1-2.1,1.8-3.8,1.8c-2.6,0-4.2-1.7-4.7-3.6
		c-0.8,0.1-1.7,0.3-2.5,0.5c-0.6,1.4-1.9,2.4-3.7,2.6c-0.6,0.3-1.4,0.5-2.3,0.5c-0.9,0-1.7-0.2-2.4-0.6c-1.8,0.7-3.5,1.5-5.1,2.4
		c-2.8,1.5-5.5,0.1-6.8-2c-1.3,0.2-2.7,0.3-4,0.5c0.8,1.6,0.8,3.7-0.1,5.2c-0.7,1.6-2.1,2.8-4.4,2.8c-2,0-3.4-1-4.1-2.3
		c-0.1,0-0.2,0.1-0.3,0.1c-0.8,0.2-1.7,0.2-2.5,0c2.1,2.9,0.8,8.2-3.8,8.2c-1,0-1.9-0.3-2.6-0.7c-0.1,0-0.2,0-0.2-0.1
		c-0.8,1.2-2.1,2-3.9,2c-0.1,0-0.2,0-0.3,0c-0.1,0.3-0.3,0.5-0.4,0.8c-0.1,0.2-0.1,0.3-0.2,0.4c0.7,1.6,0.6,3.6-0.3,5.1
		c0.6,0.8,1,1.8,1,2.9c0,0,0,0,0,0c0,0.5,0,1-0.1,1.5c0,0,0,0,0,0.1c-0.1,0.2-0.1,0.5-0.2,0.7c0,0,0,0.1,0,0.1
		c-0.2,0.4-0.4,0.8-0.7,1.2c0,0,0,0.1-0.1,0.1c-0.1,0.2-0.3,0.3-0.5,0.5c0,0-0.1,0.1-0.1,0.1c-0.2,0.2-0.4,0.3-0.6,0.4c0,0,0,0,0,0
		c-0.2,0.1-0.4,0.2-0.7,0.3c0,0-0.1,0-0.1,0.1c-0.2,0.1-0.5,0.1-0.7,0.2c0,0-0.1,0-0.2,0c-0.1,0-0.2,0-0.4,0c0,0,0,0,0,0
		c-0.4,3.8-0.9,7.6-2.7,11c-0.8,1.6-2.6,2.4-4.4,2.4c0.7,0.9,1.1,2,1.1,3.1c0,0.5,0,0.9-0.1,1.4c0.9,1,1.4,2.3,1.4,3.6
		c0.4,1.1,0.5,2.2,0.2,3.3c-0.5,1.8-1.8,3-3.3,4c-0.2,0.1-0.4,0.2-0.6,0.3c0.2,1.8,0.4,3.6,0.6,5.4c0.4,0.5,0.7,1,0.8,1.6
		c1.1,3.7,2.1,7.3,1.3,11.2c-0.2,0.9-0.7,1.6-1.3,2.2c0.1,1.4,0.1,2.8,0.2,4.2c3.3,1.6,3.5,6.8,0.5,8.8c0,0.4,0,0.9,0.1,1.3
		c3.2,0.4,4.5,3.5,3.9,6.1c1.4,1.7,2.7,3.5,3.7,5.5c1.2,1.1,1.8,2.8,1.6,4.4c1,0.4,1.9,0.8,2.9,1.2c0.8-0.7,1.9-1.2,3.3-1.2
		c3.4,0,5,2.8,4.8,5.4c0.6,0.3,1.1,0.7,1.7,1c0.3,0.2,0.6,0.5,0.9,0.7c0.6-0.3,1.3-0.4,2.1-0.4c0.3,0,0.5,0,0.8,0.1
		c0.2,0,0.5-0.1,0.7-0.1c3,0,4.6,2.2,4.8,4.5c0.7-1,1.7-1.7,3.1-1.9c0.8-0.7,1.8-1.1,3.1-1.1c2.8,0,4.4,1.9,4.7,4.1
		c0.8-1,2-1.7,3.5-1.8c6.5-0.7,13-0.7,19.5-0.3c0.5,0,0.9,0.1,1.3,0.3c0.4-0.1,0.9-0.2,1.5-0.3c0.9-0.5,2-0.8,3.3-0.6
		c0.9,0.1,1.8,0.1,2.7,0c0.8-1,2-1.7,3.7-1.7c0.9,0,1.6,0.2,2.3,0.5c0.4-0.1,0.9-0.2,1.3-0.2c3.7-0.6,7.4-0.6,11-1.1
		c0.3-1.1,1-2,2.4-2.7c1.5-0.7,3-1.4,4.5-2c-0.2-2.1,0.8-4.2,2.8-5.1c0.4-1.1,1.1-2,2.1-2.6c-0.6-2.6,0.7-5.8,3.9-6.3
		c0.1-1.3,0.6-2.5,1.6-3.4c-1.7-2.6-0.9-6.7,2.4-7.7c0-0.9,0.2-1.7,0.6-2.5c-3.3-2.2-2.7-8.3,1.7-9.1c0.1-1.6,0.9-3.2,2.4-4
		C121.5,83.1,121.5,75.8,126.1,74.5z"/>
	<path class="st1" d="M12,108.2c-4-1.1-1.7-4-1.2-5.7c0.7-2.2,1.3-3.3-1.3-4.5C7,96.9,8,94.6,8.8,92.7c0.8-2,0.8-3.9,0.8-5.9
		c0.2-4.4,0-8.2-2.4-12c-0.8-1.3,0.3-3.3,1.4-4.3c3.8-3.4,2.6-7,0.9-10.7c-1.8-4-1.7-4.4,2.5-5.8c1.2-0.4,1.8-0.8,1.3-2.1
		c-0.3-0.7-0.4-1.6-0.5-2.3c-0.9-4.6-0.3-6.3,4.1-7.8c2.3-0.8,3-1.9,2.7-4.1c-0.2-2.3-0.1-4.6,0-6.8c0-2.9,1.6-4.4,4.5-4.5
		c0.7,0,1.4-0.1,2,0c3.5,0.3,4.4-1.4,4.3-4.6c-0.2-3.7,1.2-4.2,4.8-2.9c1.7,0.6,3.2,2.3,5.3,1.6c1.1-0.3,0-2.2,1.5-2.1
		c0.3,0.2,0.5,0.5,0.6,0.8c-0.2,3.9-1.6,4.8-5.2,3.5c-3.8-1.4-3.8-1.4-4.1,2.7c-0.2,3.8-1.1,4.5-4.8,4.4c-1.5,0-3-0.1-4.4,0.1
		c-0.3,0.2-0.5,0.3-0.7,0.5c-1.6,2.7-0.2,5.4,0.1,8.1c0.1,0.3,0.1,0.7,0.2,1c0.1,2.6-1.3,3.9-3.6,4.7c-4.5,1.6-4.7,2.1-3.3,6.4
		c1.6,4.7,0.7,6.1-4.3,6.7c-0.7,0.3-0.6,0.9-0.3,1.4c3.2,4.5,3.9,8.8-0.7,13C10,73,10,74.9,11.4,76.5c1.8,1.9,2.4,4,1.4,6.6
		c-0.3,0.7-0.3,1.5,0.4,1.8c2.4,1.4,1.8,2.9,0.5,4.7c-2.2,3.1-3.2,6.3,0.2,9.3c0.1,0.3,0.1,0.6,0.1,1c0,2.3-2.5,4.3-0.6,6.7
		c0.1,0.3,0.2,0.6,0.1,0.9C13.2,108.1,12.4,107.8,12,108.2z"/>
	<path class="st2" d="M121.8,100.2c-0.8,0.9-1.7,1.7-2.5,2.6c-1.6,2.1,0.2,4.6-1,6.8c-0.9,1.6-2.2,2.8-4,3.5c-1.2,1.1,0.1,2.8-0.9,4
		c-1.9,2-3.5,4-3.6,6.9c0,1.2-1.1,2.2-2.2,2.3c-2.3,0.1-4,1.5-5.8,2.5c-0.1-0.1-0.2-0.2-0.3-0.3c-0.8-2.6,0.6-3.8,2.8-4.5
		c1.2-0.4,2.5-0.5,2.7-2.2c-1.1-0.2-2.8,0.5-2.7-1.6c1.7-1.5,3.3-3.2,4.6-5.1c0.5-0.4,1.1-0.2,1.7-0.1c0.2-0.2,0.2-0.3,0-0.6
		c-0.1-0.1-0.2-0.2-0.3-0.2c-0.4-0.2-0.7-0.5-0.9-0.8c-0.2-0.3-0.2-0.6-0.1-0.9c0.5-0.9,1.4-1,2.2-1.5c1.7-0.8,3.7-1.1,4.8-2.9
		c0.9-1.5,0.3-3,0-4.5c0.2-3.5,0.6-4,4.8-4.7C121.7,99.2,122.2,99.5,121.8,100.2z"/>
	<path class="st3" d="M77.2,132.4c-3.5,3.4-4.6,3.7-8.3,0.6c-1.4-1.1-2-0.8-3,0.1c-2.2,2-4.5,2.6-6.8,0c-1.2-1.3-2.2-0.4-3.3,0.2
		c-2.6,1.4-4.8,1.1-6.1-1.8c-0.5-0.7-0.3-1.2,0.4-1.7c2.2,0.6,4.3,1,6.4-0.5c1.2-0.9,2.8-0.5,3.8,0.6c1.6,1.7,2.8,1.2,4.3-0.2
		c2-1.9,4.2-2.2,6.2,0c1.6,1.8,2.9,2,4.9,0.4c1.5-1.1,3.7-2.6,4.5,0.9C79.6,132.6,77.9,131.2,77.2,132.4z"/>
	<path class="st4" d="M77.2,132.4c0.4-1.4,2.3-0.5,2.8-1.8c0.3-0.2,0.7-0.2,0.9-0.4c3.1-2.1,6.1-4.7,10.2-2.2
		c0.2,0.1,0.7-0.1,0.9-0.3c3.6-3.1,6.7-1,9.8,1c0,0,0,0,0,0c0.5,2.3-0.8,3-2.7,2.4c-2.3-0.7-4.4-1.3-6.6,0.5c-1.5,1.2-3-0.4-4.4-1
		c-1.3-0.6-2.3-0.8-3.1,0.6c-1.5,2.3-3.3,3.1-5.6,1.1C78.6,131.7,77.9,132.2,77.2,132.4z"/>
	<path class="st5" d="M13.3,107.6c0-0.2,0-0.5,0-0.7c1.6-0.4,3.7-1.4,4.7,0.1c1.1,1.8-1.2,3.1-1.9,4.6c-1.1,1.6-1,2.6,1.3,2.7
		c3.3,0.5,3.6,3,3.9,5.6c0.2,0.7,0.5,1.4,1.5,0.9c1-0.5,2-1,3.1-1.3c2.2-0.5,3.8,0,3.9,2.7c-0.2,0.7-0.4,1.5-1.5,1.2
		c-2.1-1.3-3.9,0.4-5.6,0.9c-2.1,0.6-3.4,0-3.5-1.8c-0.2-3.7-1.8-5.7-5.4-6.4c-0.2,0-0.3-0.5-0.5-0.8c-0.4-1.5-0.4-3,0-4.5
		c-0.1-0.2-0.1-0.4,0.1-0.5C14.3,109.4,12.8,108.5,13.3,107.6z"/>
	<path class="st6" d="M106.6,21.2c2.3,2.2,1.1,4.8,0.7,7.2c-0.3,2.1,0,3.4,2.2,4.1c1.5,0.5,2.7,1.5,4.1,2.3c2.5,1.4,2.9,3.2,1.2,5.5
		c-0.6-0.5-0.8-1.2-0.6-1.8c0.6-1.8-0.9-0.4-1.2-0.8c-2.1-1.1-4.3-2-6.6-2.5c-2.8-0.6-3.6-2.4-3.1-5.1c0.5-2.4,1.3-4.8,2-7.2
		C105.5,22.2,106.1,21.7,106.6,21.2z"/>
	<path class="st7" d="M120.5,50.2c-0.5,3,0.4,5.6,1.9,8.1c0.5,1,0.5,2.1,0,3.1c-2.1,2.2-1.7,4,1,5.5c1.2,0.6,1.9,1.8,2.5,3
		c0.2,0.2,0.2,0.3,0.2,0.5c0,0.2-0.1,0.3-0.1,0.3c-0.3,0.2-0.5,0.2-0.9,0.3c-0.1,0-0.3-0.1-0.4-0.1c-0.3-0.1-0.5-0.3-0.7-0.5
		c-0.6-0.7-1.3-1.1-2.2-1.4c-0.4-0.2-0.8-0.3-1.3-0.5c-4.5-2.1-4.5-2.1-1.6-6.2c1.5-2,0.7-3.6-0.6-5.2c-2.7-3.5-2.7-4.6,0.3-7.9
		c0.3-0.2,0.6-0.3,1-0.3c0.4,0,0.7,0.2,0.9,0.4C120.6,49.5,120.6,49.9,120.5,50.2z"/>
	<path class="st8" d="M62.7,12c-0.2-1,0.5-1.5,1.2-2c1.1-0.8,1.8-2,3-2.7c2.8,0.1,4.3,2,5.5,4.1c0.7,1.2,1.6,1.3,2.7,0.8
		c2.5-0.8,4.5-3.6,7.6-2.3c0.5,0.7,1.2,1.4,0,2.1c-2.9,0.7-5.6,2-8,3.7c-1.2,0.8-2.5,1.9-3.9,0.4C70,15,69.9,13.7,69,12.7
		c-0.9-1.6-2-2.5-3.5-0.5c-0.6,0.8-1.3,1.6-2.5,1.5C62.3,13.3,62.3,12.7,62.7,12z"/>
	<path class="st9" d="M82.4,11.6c0.9-0.4,0.3-1.1,0.3-1.6c2,3.6,4.5,4.4,8.2,2.3c1.3-0.7,3.1,0,4.1,1.5c0.6,0.9,0.1,1.3-0.7,1.6
		c-2.2-0.6-3.9,0.4-5.6,1.5c-5,3.3-5.9,2.9-6.5-3C82.1,13.1,81.9,12.3,82.4,11.6z"/>
	<path class="st10" d="M50.6,130.1c-0.7,0.3-0.8,0.8-0.9,1.5c-0.8-0.8-1.4-0.9-2.5-0.1c-5.3,4-6.2,3.8-9.3-2c0.3-0.7,0.8-1,1.5-0.9
		c1.7,2.2,3.2,2.4,5.2,0C47.1,125.9,49.1,126.6,50.6,130.1z"/>
	<path class="st11" d="M94.1,15c0.6-0.2,0.8-0.7,0.9-1.3c0.2,0.1,0.4,0.3,0.5,0.4c0.8,4.4,2.5,7.5,7.8,5.6c1-0.4,2.3,0,2.7,1.4
		c-1.4,0-2.7-0.5-4.1-0.4c0.3,0.9,3.2-1.3,2.3,1.6c-2.3,0.8-4.7,1.1-7.1,1.1c-3.1,0.1-4.1-1-3.8-4.1C93.4,17.8,93.1,16.3,94.1,15z"
		/>
	<path class="st12" d="M121.8,100.2c-0.4-0.3-0.7-0.7-1.1-1c-0.1-0.2-0.2-0.4-0.3-0.6c-3.9-5.9-1.7-10.6,3.1-14.7
		c0.6-0.4,1.2-0.9,1.9-0.2c0.3,1.3,0,2.5-0.9,3.6c0.1,0.7-0.2,1.2-0.7,1.4c-4.2,1.7-3.2,4.4-1.4,7.3c0.5,1.3,0.6,2.6,0,3.9
		C122.2,100,122,100.1,121.8,100.2z"/>
	<path class="st13" d="M39.4,128.8c-0.5,0.2-1,0.5-1.5,0.7c-6.2,1.8-6.3,1.7-8.2-2c-0.4-0.7-0.4-1.3,0.5-1.7
		c1.9,0.8,3.6,1.3,5.7,0.2C38.2,124.9,39.4,126,39.4,128.8z"/>
	<path class="st8" d="M54,11.5c0.9-1.6,2.1-3.1,4-2.9c1.8,0.1,2.6,1.6,2.7,3.3c0.2,0.6,0.4,1.3-0.2,1.8c-1.7,0.5-3.4-1.6-5.1,0
		C54.4,13.4,54.2,12.5,54,11.5z"/>
	<path class="st14" d="M54,11.5c0.8,0.5,1.2,1.1,1.2,2.1c0.6,0.7,0.5,1.5,0.2,2.2c-0.6,1.6-0.3,4.2-2.3,4.5
		c-1.9,0.3-2.8-1.9-3.7-3.4c-0.1-0.5,0-1,0.4-1.3c0.8-0.5,1.9,0.1,2.6-0.6C53,13.8,53.5,12.6,54,11.5z"/>
	<path class="st9" d="M125,83.6c-0.4,0.2-0.8,0.4-1.2,0.6c-4.5-3.8-4.5-7.2-0.1-10.6c0.3-0.1,0.7-0.2,1-0.3c0.3,0,0.7,0.1,1,0.2
		c0.2,0.2,0.3,0.3,0.3,0.5c0,0.2-0.1,0.3-0.1,0.3c-4,2.6-2.7,5.6-0.7,8.6c0.2,0.2,0.2,0.3,0.1,0.4C125.2,83.5,125.1,83.6,125,83.6z"
		/>
	<path class="st15" d="M113.6,37.6c0.4-0.1,1-1.8,1.3,0.1c0.1,0.9,0,1.8,0,2.7c-0.3,0.9,0.4,1.4,0.7,2c0,0.6-0.3,1-0.7,1.4
		c-1.5,0.5-2.6-0.2-3-1.4C111.1,40.4,112.2,38.9,113.6,37.6z"/>
	<path d="M50.4,15.6c-0.2,0.2-0.5,0.3-0.7,0.5c-2.3,0.4-3.9-1-5.8-1.9c-0.4-0.7-0.2-1.4,0.2-2c1.8-0.3,3.2,1,4.8,1.4
		C49.7,14.2,50.8,14.4,50.4,15.6z"/>
	<path class="st16" d="M114.9,43.2c0.2-0.3,0.5-0.6,0.7-0.8c1.9,0.4,3.6,1.2,4.7,2.9c0.5,1.3,0.8,2.6-0.1,3.9
		c-0.2,0-0.4,0.1-0.6,0.1c-0.9-0.7-0.7-1.9-1.4-2.7C117.4,45.3,115.5,44.9,114.9,43.2z"/>
	<path class="st17" d="M59.8,13.6c0.7-0.3,0.9-1,1-1.7c0.6,0.9,1.2,1,1.9,0.1c0.1,0.6,0.1,1.2,0.7,1.5c0.8,1.9-0.3,2.9-1.9,3
		C59.9,16.5,59.4,15.2,59.8,13.6z"/>
	<path class="st18" d="M44.2,12.2c0,0.6,0,1.3,0,1.9c0,1.7,0,3.5-2,4.3l-0.1-0.1c-0.5-1.1-0.5-2.3,0-3.4
		C42.2,13.5,42.8,12.6,44.2,12.2z"/>
	<path class="st19" d="M30.6,126.1c-0.7,0.3-0.7,0.9-0.9,1.5c-1-1.2-1.2-2.7-1.5-4.1c0.6-0.3,0.8-0.9,0.9-1.5
		C31.5,122.6,31.5,124.2,30.6,126.1z"/>
	<path class="st16" d="M104.6,21.7c-0.9-1.2-2.4-0.4-3.7-0.9c1.9-0.7,3.5-0.3,5.1,0.3c0.2-0.1,0.4,0,0.6,0.1
		c-0.1,0.6-0.3,1.1-0.8,1.3C105.2,22.6,104.8,22.3,104.6,21.7z"/>
	<path class="st20" d="M118.3,109.6c0.4-2.2-1-4.8,1-6.8C118.3,105,120.3,107.6,118.3,109.6z"/>
	<path class="st21" d="M42.2,14.9c0,1.1,0,2.3,0,3.4c-0.8,0.4-0.4,1.8-1.6,2C41.1,18.5,41.2,16.6,42.2,14.9z"/>
	<path class="st22" d="M50.4,15.6c-0.5-0.7-0.9-1.3-1.4-2c1.4-0.4,1.8,2.1,3.4,1.3C52,15.7,51.4,16.2,50.4,15.6z"/>
	<path class="st23" d="M120.3,49.2c0-1.3,0.1-2.6,0.1-3.9c1.5,1.6,1.2,3.3,0.1,5C120.4,49.9,120.4,49.5,120.3,49.2z"/>
	<path class="st24" d="M125,83.6c0.1-0.2,0.1-0.3,0.1-0.5c1.1,1.6,1,3-0.6,4.2C124.8,86.1,125.4,84.9,125,83.6z"/>
	<path class="st25" d="M66.9,7.3c-0.7,1.2-1.5,2.3-3,2.7C64.6,8.8,65.3,7.6,66.9,7.3z"/>
	<path class="st24" d="M125.9,74.5c0-0.2-0.1-0.4-0.1-0.6c-0.8-1.1-0.8-2.1,0-3.2c0-0.2,0.1-0.5,0.1-0.7
		C127.1,71.4,127.2,72.9,125.9,74.5z"/>
	<path class="st26" d="M122.4,99.9c0-1.3,0-2.6,0-3.9C123.5,97.3,123.6,98.6,122.4,99.9z"/>
	<path class="st27" d="M13.3,107.6c0.3,0.9,1.3,1.8,0,2.7c0.3-1.2-0.5-1.7-1.4-2.1C12.3,107.7,12.8,107.6,13.3,107.6z"/>
	<path class="st27" d="M13.3,110.8c0,1.5,0,3,0,4.5C12.5,113.8,12.6,112.3,13.3,110.8z"/>
	<path class="st28" d="M113.5,117.1c0.3-1.3-0.9-3,0.9-4C113.5,114.3,115,116,113.5,117.1z"/>
	<path class="st29" d="M122.4,61.4c0-1,0-2.1,0-3.1C123.4,59.3,123.5,60.4,122.4,61.4z"/>
	<path class="st30" d="M75.1,12.3c-1.2,0.9-2.3,1.2-2.7-0.8C73.1,12.2,74.1,12.3,75.1,12.3z"/>
	<path class="st31" d="M124.3,73.9c1.2-1,1-2.2,0.2-3.4l0,0c-0.6-0.8-1.2-1.6-2.2-2c-1.8-0.8-3.6-1.7-5.5-2.5c0.2-1.4,1.4-2,2.3-2.9
		c2.1-2.1,2.2-4.5,0.1-6.2c-3.4-2.7-2.4-5.1-0.2-7.7c0.4-1.1,0.7-2.3-0.2-3.4c-1.3-0.9-2.6-1.8-3.9-2.7c-2.9-0.4-3.4-1-2.2-3.1
		c0.5-0.8,0.7-1.6,0.9-2.5c-1.5-1.7-3.3-2.5-5.5-2.9c-4.7-1-4.7-1-3.6-5.9c0.5-2.1,1.6-4,1.3-6.2c-0.4-0.3-0.8-0.6-1.2-0.8
		c-2.3-0.1-4.5,0.4-6.8,0.8c-2.5,0.4-4.7,0.4-3.7-3.4c0.3-1.3,0-2.7,0-4.1c-1.1-1-2.1-1.5-3.5-0.4c-1.4,1.1-3.1,2-4.5,3
		c-2,1.5-2.7,1-2.9-1.4c-0.1-1.6-0.5-3.1-0.8-4.7c-3.5,0.1-6.1,2.1-8.8,3.9c-0.9,0.6-1.6,1.7-2.7,0.2c-0.6-1.1-0.4-2.6-1.7-3.5
		c-0.6-2-1.4-3.6-2.8-2.2c-0.2,0.3-0.4,0.6-0.7,0.8c-0.1,0.1-0.2,0.3-0.3,0.4c-0.5,0.8-1.3,1.5-2,2.2c-0.2,1.2-0.6,2.6-1.9,2.6
		c-1.1,0-1.4-1.5-1.7-2.5c-0.6-0.5-1.1-1.1-1.7-1.5c-1,0.4-1.9,0.8-2.8,1.3c0,0.1-0.1,0.1-0.1,0.2c-0.8,2.1-0.8,4.5-2.4,6.7
		c-1.1-1.5-2.1-2.8-3.1-4.1c-1.7-0.9-3.4-2.1-5.5-2c-0.7,1.4-1.3,2.9-2,4.3c0,4.1-0.9,4.9-3.9,3.5c-5.9-2.7-5.9-2.7-5.7,3.8
		c0.1,2.6-0.9,3.5-3.5,3.2c-2.1-0.3-4.2-0.8-6.2,0.4c0.6,0.7,1.5,0.6,2.4,0.7c-0.9,0-1.8,0.1-2.4-0.7c-2.4,3-0.6,6-0.1,9
		c0.5-0.3,0.2-0.9,0.5-1.3c-0.2,0.5,0,1-0.2,1.6c-0.2,0.4-0.1-0.2-0.2,0.3c0.4,2.7-1,3.7-3.5,4.3c-1.8,0.4-3,0.9-3.7,1.6
		c-0.2,1.2-0.3,2.4-0.6,3.6c0.2,0.6,0.4,1.3,0.7,2c1.9,4.4,1.7,4.8-2.9,5.5c-0.6,0.1-1.3,0.5-1.9,0.7c0.5,0.3,1,0.4,1.5,0.5
		c-0.6,0.1-1.1,0.3-1.4,1.1c3,4.6,4.4,9.1-0.7,13.3c-0.2,0.1-0.2,0.4-0.4,0.6c-1.3,1.6-1.3,3.2,0.4,4.5c2.6,2,2.7,4.3,1.4,6.9
		C11.1,84.8,11,85.7,13,86c1.8,0.3,2,1.1,0.6,2.4c-1.9,1.8-2.5,4.3-2.9,6.7c-0.4,2.2,2,2.3,2.9,3.5c0.1,0.2,0.1,0.4,0.1,0.7
		c0.7,0.3,0.6,0.5-0.1,0.7c-0.5,1.3-0.9,2.7-1.5,4c-0.7,1.5-0.3,2.5,1.3,2.9c1.5,1.3,3.2-0.6,4.4,0c0.5,2.3-2.4,2.7-2.3,4.7
		c-0.9,1.7,0,2.6,1.4,3.3c3.7,0.3,3.2,3.5,4.1,5.7c0.6-1,0.4-1.9,0.2-2.9c0.7,1.2-0.7,3.2,1.2,4.1c1.4-0.6,2.8-1.2,4.3-1.7
		c1.7-0.7,2.5,0,2.6,1.7c1,1.2,1.6,2.5,1.5,4.1c1.2,2.6,2.8,2.7,5.1,1.1c2-1.5,3.4-0.8,3.7,1.7c2,3.3,3.1,3.5,5.2,1.1
		c2.8-3.2,3.3-3.1,5.9,0.2c1.4,2.1,3,2.5,4.9,0.7c1.7-1.6,3.7-1.6,4.9,0.4c0.4,0.6,0.7,1,1,1.2c0.6,0,1.1-0.1,1.7-0.1
		c0.4-0.3,0.8-0.6,1.2-1c3.5-3.3,3.6-3.3,6.7,0c0.5,0.5,0.9,0.9,1.3,1.1c0.6,0,1.3,0.1,1.9,0.1c0.4-0.2,0.9-0.6,1.4-1.2
		c0.7-0.8,2.5-3.3,4.4-0.7c1.6,1.2,2.9,0.9,3.9-0.8c1.4-2.5,3.2-2.9,5.5-1c1.1,0.9,2.2,1.3,3.2-0.1c1.5-2.4,3.4-2,5.6-1
		c1.2,0.6,2.5,0.8,3.8,1.2c-0.9-3.5,1.4-4,4-4.2c1.4-0.1,2.3-0.6,2.3-2.2c0.1-2.2-1.3-1.1-2.2-1.1c-1,0-1.5-0.4-1.4-1.4
		c-0.1-0.1-0.2-0.2-0.3-0.3c-1-0.4-1.8-1-2.6-1.7c-0.2-0.2-0.5-0.3-0.8-0.5c-0.3-0.1-0.5-0.1-0.8-0.2c-0.3,0-0.5,0-0.8,0.1
		c-0.3,0.1-0.6,0.2-1,0.3c-0.2,0.1-0.4,0.1-0.6,0.1c-0.2-0.1-0.3-0.2-0.3-0.3c0.1-0.2,0.2-0.3,0.3-0.4c0.3-0.3,0.5-0.5,0.7-0.8
		c0.7-1.2,1-2.5,1.8-3.6c0.3-0.5,0.6-1.1,0.8-1.7c0.5-1.8,1.2-3.7,1.8-5.4c0.3-0.9,0.1-2,0.7-2.8c0.1-0.6,0.2-1.3,0.3-1.9
		c-0.2,0.9-0.1,1.9-0.7,2.8c-0.3,0.9-0.1,2-0.7,2.9c-0.2,0.7-0.1,1.3,0.2,1.9c1.2,0.8,2.2,1.8,3.1,3c0.4,0.3,0.9,0.5,1.4,0.6
		c1.4,0.2,2.7,0.4,4.1,0c1.7-1,4.2-0.7,5.3-2.9c1.1-1.5,0.5-3.1,0.3-4.7c-1.7-3.9,2.2-3.5,3.8-4.9c0.8-2.3-0.4-4.2-1.6-6
		c-1.2-1.9-1-3.4,1-4.5c1.9-1,2.9-2.7,3.7-4.5C120.1,77.6,120.1,77.6,124.3,73.9z M13.6,57.1c0.4-0.1,0.8-0.2,1.2-0.3
		c-0.3-0.4,0.5,0.1,0.4,0.1C14.7,57.1,14.1,57.1,13.6,57.1z M104.6,99.1c0.1-1.2,0.5-2.4,0.7-3.3C105.1,96.8,104.9,98,104.6,99.1z"
		/>
	<path class="st31" d="M104.4,99.6c-0.1,0.3-0.2,0.7-0.3,1C104.2,100.3,104.3,100,104.4,99.6z"/>
	<path class="st32" d="M11.1,56.7c1.4,0,2.8,0,4.3,0c-1.3,1-3,0.6-4.2,1.5C10.4,57.7,10.3,57.2,11.1,56.7z"/>
	<path class="st33" d="M13.6,99.3c0.5-0.2,0.5-1.3,1.2-0.8c0.9,0.6,0.4,1.5-0.1,2.1c-0.7,0.8-0.7-0.5-1.2-0.6
		C13.5,99.8,13.5,99.5,13.6,99.3z"/>
	<path class="st34" d="M22.9,38.4c0.1-0.7,0.2-1.5,0.3-2.6c0.6,1.4,0.7,2.4-0.2,3.2C22.8,38.8,22.8,38.6,22.9,38.4z"/>
	<path class="st35" d="M106.1,111c0.4,0,0.7,0,1.1,0c0.8,0.6,1.7,1.2,2,2.2l0.2-0.2l-0.2,0.1c0.8,0.6,0.7,1.2,0.2,1.9
		c-1.5,1.7-1.4,5.1-4.9,4.8c0,0,0.1,0,0.1,0c-0.8-0.6-1.9-1-2.3-2.1c0-0.3,0.1-0.6,0.2-0.8c0.6-0.5,1.4-0.5,2.1-0.8
		c1.2-0.9,1-2.2,0.8-3.5c0-0.5,0-0.9,0.3-1.3C105.8,111.2,105.9,111.1,106.1,111z"/>
	<path class="st28" d="M109.2,113.2c-1.1-0.4-2-0.9-2-2.2c1.6-0.5,2.7,1.2,4.3,0.8C110.7,112.2,110,112.7,109.2,113.2z"/>
	<path class="st28" d="M109.4,115.1c-0.1-0.6-0.2-1.3-0.2-1.9c0.6,0.2,1.1,0.4,1.7,0.6c0.6,0.9,0.4,1.7,0,2.6
		C110.4,115.9,109.9,115.5,109.4,115.1z"/>
	<path class="st36" d="M110.9,116.4c-0.5-0.9-0.2-1.7,0-2.6C112.6,114.5,112.6,114.8,110.9,116.4z"/>
	<path class="st20" d="M116.7,108.8c0.6-1.5,0.3-3.1,0.3-4.7C117.9,105.8,118.3,107.4,116.7,108.8z"/>
	<path class="st37" d="M14.4,113.3c0.4,0.5,0.8,1.1,1.2,1.6c0.3,0,0.7,0,1.2,0c-0.2-1.2-1.8-1.8-1.4-3.3
		C15,112.2,14.6,112.8,14.4,113.3z"/>
	<path class="st38" d="M20.9,120.7c0.1-0.9,0.1-1.9,0.2-3.4c0.7,1.9,0.2,3.4,1.1,4.7C20.5,122.9,21,121.4,20.9,120.7z"/>
	<path class="st23" d="M119,49.2c0.2-1.1,0.3-2.3-0.2-3.4c1.5,0.8,0.7,2.2,0.8,3.4c0,0-0.3,0-0.3,0L119,49.2z"/>
	<path class="st18" d="M125.7,70.6c0,1.1,0,2.1,0,3.2c-0.2,0.1-0.4,0.1-0.6,0.1c-0.5-1.1-0.6-2.3,0-3.4
		C125.4,70.5,125.6,70.5,125.7,70.6z"/>
	<path class="st24" d="M125.2,70.5c0,1.1,0,2.3,0,3.4c-0.3,0-0.6-0.1-0.9-0.1c0.5-1.1,0.3-2.2,0.2-3.4
		C124.8,70.5,125,70.5,125.2,70.5z"/>
	<path class="st39" d="M124.5,70.5c-0.7-0.7-1.5-1.3-2.2-2C123.7,68.4,124.4,69.1,124.5,70.5z"/>
	<path class="st39" d="M70.9,15.7c-0.9-1-1.3-2.2-1.7-3.5C70.9,12.9,71,14.3,70.9,15.7z"/>
	<path class="st40" d="M38.2,99.2c0-1.6-0.1-3,0-4.3c0.4-5.6,3.6-9.2,9-10.2c5-0.9,10-0.7,15,0.3c3.3,0.7,6.4,4.7,6.7,9
		c0.2,2.7,0.1,5.5-0.2,8.2c-0.5,4.5-2.7,6.6-7.2,7.4c-3.8,0.7-7.7,1-11.6,0.3c-0.9-0.2-2.2-0.8-2.7,0.5c-0.4,1.2,0.6,2.2,1.5,2.8
		c2.5,1.7,5.3,1.2,8,1c1,0,2.3-1.3,2.6,0.8c0.2,1.5-0.9,1.8-2.1,2.2c-4.1,1.2-8.2,0.8-12.1-0.6c-4-1.4-5.6-4.9-6.3-8.8
		C38.3,104.9,37.9,102,38.2,99.2z"/>
	<path class="st41" d="M58.6,76.4c-0.2,0.2-0.4,0.4-0.6,0.6c-0.7,1.3-1.9,2.1-2.8,3.2c-0.2,0.2-0.4,0.4-0.6,0.6
		c-1.5,0.8-2.2-0.2-2.9-1.2c-0.7-1-1.2-2.1-1.6-3.3c-0.3-0.7-0.3-1.4-0.3-2.1c0.1-2.5-0.2-5,0.2-7.4c0.2-0.4,0.4-0.7,0.8-0.9
		c2.3-0.8,4.7-0.4,7.1-0.5c0.8,0.1,1.6,0.2,2.3,0.5c1.9,1.5,1.5,3.4,0.7,5.3C60.1,73,59.4,74.7,58.6,76.4z"/>
	<path class="st42" d="M31.9,42.4c2.6-1,4.9-0.4,7,1.2c0.4,0.8,0.2,1.7,0.5,2.6c0.1,0.3,0.1,0.6,0.2,0.9c0.1,1.3,0.2,2.7-0.3,3.9
		c-0.3,0.8-0.9,1.4-1.7,1.8c-0.6,0.1-0.9-0.1-1.2-0.6c-0.3-0.6,0-1.5-1-1.7c-0.6,0-0.8,0.4-0.9,0.9c-0.1,0.3-0.1,0.5-0.3,0.8
		c-0.2,0.4-0.5,0.7-0.9,1c-0.7,0.6-1.6,0.7-2.3,1.3c-0.2,0.5-0.1,1.1-0.1,1.6c-0.1,0.3-0.2,0.5-0.4,0.7c-2.5-0.3-3.3-2.3-4.2-4.1
		c-0.8-1.6-0.9-3.2,0.8-4.4c1.5-0.5,1.9-2,2.6-3.2c0.1-0.1,0.2-0.2,0.3-0.3c0.3-0.1,0.6-0.1,0.8-0.1c0.3,0.1,0.5,0.3,0.7,0.5
		c0.4,0.6,0.6,1.3,0.6,1.9c0-0.6,0.3-0.9,0.6-1.2c0.4-0.4,0.5-0.9,0.2-1.4C32.9,43.7,31.5,43.5,31.9,42.4z"/>
	<path class="st42" d="M88.9,50c-0.9,4.5-3,5.8-8.3,5.4c-1.4-0.5-3-0.6-4.2-1.6c-0.8-0.5-1.7-0.9-2.2-1.7c-0.1-0.3-0.1-0.6,0-0.9
		c0.5-0.6,1.2-0.9,2-0.9c0.6,0.1,1.2,0.5,1.9,0.1c0.5-0.5,0.6-1.2,1.2-1.5c0.4-0.2,0.9-0.1,1.3,0.1c0.7,0.8,1.8,1.2,2.4,2.1
		c1.3,1.1,1-0.5,1.4-0.8c0.2-0.7,0.1-1.5,0.3-2.3c0.1-0.3,0.2-0.6,0.4-0.9c0.3-0.2,0.5-0.3,0.9-0.3c0.9,0.1,1.4,0.8,1.9,1.3
		C88.4,48.7,89.3,49.1,88.9,50z"/>
	<path class="st43" d="M74.4,45.7c0.5-0.9,1.1-1.8,1.6-2.6c0.3-1,1-1.3,1.9-0.7l0,0c1,0.6,2.1-0.8,3.1,0c0.3,0,0.7,0,1,0.1
		c0.5,0.5,0.6,1.2,0.4,1.8c-0.6,1.1-1.9,1-2.7,1.8c-0.6,0.4-1.1,1-1.7,1.4c-0.6,0.2-1.1-0.1-1.6-0.5c-0.5-0.5-1.1-0.1-1.6-0.2
		C74.4,46.5,74,46.2,74.4,45.7z"/>
	<path class="st44" d="M40.8,45.6c0.2-0.5-0.2-1.9,0.8-1.1c1.9,1.5,1.6,7.2-0.4,9c0,0-0.3-0.2-0.5-0.3c-0.4-0.4-0.6-0.9-0.7-1.5
		c-0.1-1.7-0.3-3.4,0.2-5.1C40.4,46.2,40.6,45.9,40.8,45.6z"/>
	<path class="st45" d="M77.9,120.7c-0.2-2.3-0.5-4.5-0.7-6.8c-0.1-0.9,0.1-2,1.3-1.9c1.1,0.1,0.8,1.4,0.6,2
		c-0.8,2.3,0.2,4.4,0.7,6.5c0.2,0.1,0.2,0.3,0.2,0.5c0,0.2,0,0.3-0.1,0.3c-0.2,0.2-0.5,0.2-0.8,0.2
		C78.7,121.5,78.3,121.1,77.9,120.7z"/>
	<path class="st46" d="M103.9,99.3c0.2-2.8,0.9-5.4,2.2-7.9c0.8,3.3-0.5,6.4-1.4,9.5C104,100.6,104.3,99.8,103.9,99.3z"/>
	<path class="st47" d="M110.4,69.1c1.2,1.4-0.7,1.8-0.9,2.7c-0.7,1.2-0.3,2.6-0.7,3.8c-0.3,1.1-1.1,1.7-2.3,2c1.9-2.4,0-5.8,2.5-7.9
		C109.3,69,109.6,68.6,110.4,69.1z"/>
	<path class="st48" d="M37.4,52.5c0.4-0.4,0.8-0.8,1.2-1.2c0.2,0.9,1.6,1,1.5,2.1c-0.9,1.8-2.4,2.7-4.2,3.4
		c-0.3,0.3-0.6,0.3-0.9,0.1c-0.4-0.6-0.5-1.2-0.4-1.9c0.1-0.3,0.2-0.6,0.3-0.9C35.6,53.1,36.7,53.1,37.4,52.5z"/>
	<path class="st49" d="M74.4,45.7c0.2,0.3,0.4,0.6,0.6,0.8c0.3,0.1,0.5,0.4,0.7,0.7c0.1,0.3,0.1,0.6,0.1,1c-0.1,1.2-0.5,2.3-1.3,3.1
		c0,0.2,0,0.5,0,0.7c-0.1,0.5-0.3,0.8-0.8,0.9c-0.2-0.1-0.4-0.1-0.6-0.3c-0.7-1.6-0.5-3.2-0.1-4.8C73.2,47,73.4,46.1,74.4,45.7z"/>
	<path class="st50" d="M60,66.4c-0.7,0-1.3,0-2,0c-2.5-0.6-5.1-0.6-7.6,0l0.1,0c-0.4,0.4-0.9,0.4-1.3,0c-0.1-0.6-0.1-1.2,0.5-1.5
		c3.2-0.9,6.4-0.9,9.7,0c0.5,0.2,1,0.5,1.4,0.7C60.7,66.1,60.4,66.3,60,66.4z"/>
	<path class="st51" d="M49.1,66.4c0.4,0,0.9,0,1.3,0c-0.1,2.7-0.1,5.4-0.2,8.2c-1.3,0.4-0.7-1-1.3-1.3C49.1,71,49.1,68.7,49.1,66.4z
		"/>
	<path class="st45" d="M73,119.2c0.2-1.4-0.5-2.9,0.7-4.1c1,0,0.9-0.9,1.4-1.4c1.6,1.8,0.3,3.6,0,5.4c-0.3,0.4-0.8,0.6-1.3,0.5
		C73.5,119.6,73.3,119.4,73,119.2z"/>
	<path class="st52" d="M60,66.4c0.3-0.3,0.5-0.5,0.8-0.8c2.9,1.8,1.2,4.1,0.6,6.3c-0.8,0.4-1-0.2-1.3-0.7C60.6,69.6,61.6,68,60,66.4
		z"/>
	<path class="st53" d="M103.3,106.3c0,0.5,0,1.1,0,1.6c0.2,0.4,0.4,0.9,0.3,1.4c-0.2,0.7-0.8,1-1.3,1.3c-0.5,0.3-1.1,0.6-1.8,0.3
		c-0.3-2.2,1.2-3.7,1.8-5.5C103.2,105.2,103.5,105.5,103.3,106.3z"/>
	<path class="st54" d="M76.5,53.3c1.4,0.7,2.7,1.4,4.1,2.1c-2-0.6-4.3,1-6.1-0.7C74.6,53.5,75.1,52.6,76.5,53.3z"/>
	<path class="st55" d="M40.1,53.4c-0.9-0.4-1.7-0.9-1.5-2.1c0-1.6,0.1-3.2,0.1-4.8c1.3-0.2,1.2,0.9,1.4,1.6c0.4,1.2,0.1,2.6,0.6,3.8
		c0,0.4,0,0.8,0,1.2C40.5,53.3,40.3,53.3,40.1,53.4z"/>
	<path class="st56" d="M108,56.1c0,1.3,0,2.6,0,4l0.1,0.1c-1.3,0.9-1.2-0.3-1.3-1c-0.3-1.5-0.5-3-0.7-4.5c0.4-0.4,0.8-0.4,1.2-0.2
		C107.9,54.9,107.6,55.7,108,56.1z"/>
	<path class="st57" d="M108.1,60.2c0,0-0.1-0.1-0.1-0.1c1.2,1.9,0.6,4.1,0.8,6.2c-0.3,0.3-0.5,0.3-0.8,0.1
		C106.9,64.3,107,62.3,108.1,60.2z"/>
	<path class="st58" d="M73.7,119.2c0.5,0,0.9,0,1.4,0c0.1,1.2,0.5,2.5,0.4,3.7c-0.1,1.4-0.8,1.7-1.7,0.4
		C73.1,121.9,73.3,120.6,73.7,119.2z"/>
	<path class="st59" d="M29.8,45.1c-0.9,0.2-1.9,0.5-3.5,0.9c1.6-1.5,1-2.9,0.7-4.7c1,0.7,1.6,1.1,2.3,1.6
		C29.7,43.6,30.3,44.2,29.8,45.1L29.8,45.1z"/>
	<path class="st60" d="M23,29.3c1.7,0.2,3.4-0.3,5,0.7C26.2,30.4,24.4,31.9,23,29.3C23,29.3,23,29.3,23,29.3z"/>
	<path class="st61" d="M79.3,121.3c0.2,0,0.4,0,0.6,0c0.5,1.8,0.5,3.7,0,5.5c-2.3,0.2-2.1-1.4-2-2.8
		C78.8,123.3,78.2,121.8,79.3,121.3z"/>
	<path class="st62" d="M106.8,82.3c-0.1-0.7-0.4-1.6,0.3-1.8c1-0.3,0.9,0.8,0.9,1.3c0,2.5,0.4,4.9-0.6,7.3
		C105.6,87,107.9,84.5,106.8,82.3z"/>
	<path class="st63" d="M82,44.4c0-0.7,0-1.4,0-2.1c1.8,0,3.5,0,4.9,1.3c-0.1,0.5-0.4,0.8-0.8,1c-0.8,0.3-1.7,0-2.6,0.2
		c-0.3,0-0.6,0-0.9,0C82.4,44.8,82.1,44.6,82,44.4z"/>
	<path class="st64" d="M25.7,52c-2.4-1.9-2-3.7,0.1-5.5C26.9,48.3,26.2,50.2,25.7,52z"/>
	<path class="st65" d="M97.6,116.3c0.7-1.4,1.4-2.7,2.1-4.1c0.6-0.3,0.9,0,1.1,0.4c0.2,1,0,2.2,0.6,3.1c0,0.3,0,0.6-0.2,0.9
		c-0.4,0.3-0.9,0.4-1.4,0.4c-0.5,0-1,0-1.5-0.1C98,116.9,97.8,116.6,97.6,116.3z"/>
	<path class="st66" d="M49.7,64.3c3.1-1.4,6.4-0.5,9.5-0.6c0.1,0,0.2,0.1,0.2,0.2c0,0.1-0.1,0.2-0.1,0.3
		C56.1,64.9,52.9,64.9,49.7,64.3z"/>
	<path class="st67" d="M84.6,124.4c-0.6-2-1.4-3.2-0.7-5.5C84.8,120.8,85.8,122,84.6,124.4z"/>
	<path class="st68" d="M25.7,52c0-1.8,0.1-3.6,0.1-5.5c1.7-0.3,1.4,0.9,1.4,1.9c-0.3,1.5-0.5,2.9-0.8,4.4
		C26.1,52.5,25.9,52.2,25.7,52z"/>
	<path class="st69" d="M29.9,45.1c-0.2-0.7-0.5-1.4-0.7-2.2c0.9-0.3,1.7-0.8,2.7-0.6c0.4,0.9,2.2,0.5,2,2.1
		c-0.1,0.1-0.2,0.2-0.4,0.3c-0.2,0-0.3,0-0.5,0c-0.9,0-1.8-0.5-2.5,0.4l-0.3,0L29.9,45.1z"/>
	<path class="st70" d="M49.7,64.3c3.2,0,6.4,0,9.6,0c0,0.2,0,0.4,0,0.6c-3.2,0-6.4,0-9.7,0C49.7,64.7,49.7,64.5,49.7,64.3z"/>
	<path class="st71" d="M84,115.8c0.9,0,2.1,0.4,1.7,1.4c-0.4,1.2-1.8,1.4-3.1,1.3C82.4,117.3,82.7,116.3,84,115.8z"/>
	<path class="st72" d="M60.1,71.2c0.4,0.2,0.9,0.5,1.3,0.7c-0.8,1.6-0.7,3.7-2.8,4.5C58.3,74.4,59.6,72.9,60.1,71.2z"/>
	<path class="st73" d="M35.5,56.7c0.2-0.1,0.3,0,0.4,0.1c-0.4,0.3-0.9,0.6-1.3,0.9c-1.2,0.7-2.3,0.7-3.5,0c-0.2-0.2-0.4-0.5-0.7-0.7
		c0-0.3,0.1-0.6,0.1-0.9c0.9-0.8,2-0.1,3-0.4C34.5,55.5,34.9,56.4,35.5,56.7z"/>
	<path class="st74" d="M102.7,117.8c1,0.3,1.9,0.8,2,2.1c-1.8,0.5-2.7-0.6-3.5-2c0.1-0.1,0.1-0.2,0.2-0.3c0.2-0.1,0.5-0.2,0.7-0.2
		C102.3,117.5,102.5,117.6,102.7,117.8z"/>
	<path class="st75" d="M107.3,54.7c-0.4,0-0.8,0-1.2,0c-0.4-1.4,0.6-3-0.8-4.2c-0.2-0.2-0.2-0.4-0.2-0.5c0.1-0.2,0.1-0.3,0.2-0.3
		c0.5-0.2,0.9-0.2,1.3,0.2c-0.2,1,0,1.9,0.8,2.7C107.9,53.3,108,54.1,107.3,54.7z"/>
	<path class="st76" d="M100.5,113c-0.3-0.3-0.6-0.5-0.8-0.8c0.3-0.4,0.6-0.9,0.9-1.3c0.4-0.2,0.7-0.5,1.1-0.7
		c0.9,0.1,1.7,0.3,1.9,1.4c-0.1,1-0.8,1.4-1.7,1.8C101.4,113.5,100.9,113.5,100.5,113z"/>
	<path class="st77" d="M103.2,109.4c0-0.5,0.1-1,0.1-1.5c1.6,0.4,3,1,2.7,3.1c0,0-0.2-0.1-0.2-0.1c-0.4,0.4-0.8,0.5-1.3,0.4
		C103.8,110.9,103.2,110.3,103.2,109.4z"/>
	<path class="st78" d="M84,115.8c-0.5,0.9-0.9,1.8-1.4,2.7c-1-0.9-1-2-0.3-3C82.8,114.9,83.6,115.2,84,115.8z"/>
	<path class="st79" d="M87.4,48.6c-0.5-0.5-0.9-1-1.4-1.5c-0.3-0.7,0.1-1.1,0.5-1.5c0.5-0.4,1-0.5,1.6-0.5c0.5,0.3,0.7,0.8,0.6,1.4
		C88.3,47.2,89.2,48.8,87.4,48.6z"/>
	<path class="st80" d="M106.8,82.3c1.4,2.2,0.2,4.6,0.7,6.9c-0.3,0.2-0.5,0.5-0.8,0.7c-0.6-1.5-0.5-2.9-0.1-4.4
		C106.6,84.4,106.7,83.3,106.8,82.3z"/>
	<path class="st81" d="M103.9,99.3c0.3,0.5,0.5,1,0.8,1.5c-0.2,0.9-0.5,1.8-0.7,2.7c-0.8,0.2-1.1-0.1-0.9-0.9
		C103.4,101.5,103.7,100.4,103.9,99.3z"/>
	<path class="st82" d="M75.8,41c-0.8-0.4-1.6-0.9-1.2-2c0.1-0.2,0.5-0.5,0.7-0.5c1.2,0.3,1.4,1.2,1.4,2.3
		C76.4,41.2,76.1,41.3,75.8,41z"/>
	<path class="st83" d="M79.3,121.3c-0.3,0.9,0.6,2.6-1.4,2.7c0-1.1,0-2.1,0-3.2C78.5,120.6,79,120.7,79.3,121.3z"/>
	<path class="st84" d="M76.5,53.3c-1-0.1-1.4,0.9-2.1,1.4c-0.8-0.4-1.1-1-0.8-1.8c0.3-0.3,0.5-0.6,0.8-0.9
		C75.1,52.4,75.8,52.9,76.5,53.3z"/>
	<path class="st85" d="M55.2,80.2c0.3-1.7,1.5-2.5,2.8-3.2C57.9,78.9,57.2,80.1,55.2,80.2z"/>
	<path class="st86" d="M87.4,48.6c0.5-0.7,0.9-1.4,1.4-2.1c0.5,1.2,0.9,2.3,0.1,3.6C88.4,49.6,87.9,49.1,87.4,48.6z"/>
	<path class="st87" d="M52,79.3c0.8,0.5,1.2,1.8,2.5,1.4c0,0.2,0,0.5,0,0.7c-0.4,0.4-0.9,0.5-1.4,0.2c-1.4-0.1-1.9-1.1-2.2-2.2
		C51.2,79.1,51.6,79.1,52,79.3z"/>
	<path class="st59" d="M108,66.4c0.3,0,0.6,0,0.8-0.1c0.6,0.9,1.4,1.6,1.6,2.7c-0.5,0.2-0.9,0.4-1.4,0.6
		C109.2,68.4,107.6,67.7,108,66.4z"/>
	<path class="st88" d="M79.9,126.8c0-1.8,0-3.7,0-5.5c0-0.2,0-0.5,0-0.7C81,122.7,81,124.7,79.9,126.8z"/>
	<path class="st89" d="M47.8,73.1c0-1.5,0-3,0-4.5c0.1,0,0.2,0,0.3,0c0,1.5,0,3,0,4.5C48,73.1,47.9,73.1,47.8,73.1z"/>
	<path class="st90" d="M52,79.3c-0.4,0.1-0.8,0.1-1.2,0.2c-1-0.7-1.5-1.6-1-2.8c0.2-0.3,0.4-0.3,0.6,0C51.6,77.2,51.6,78.4,52,79.3z
		"/>
	<path class="st91" d="M50.4,76.7l-0.3,0.1l-0.3-0.1c-1.2-0.9-0.8-2.2-0.8-3.4c0.4,0.4,0.8,0.9,1.3,1.3C50.4,75.3,50.4,76,50.4,76.7
		z"/>
	<path class="st92" d="M111.5,92.9c1.5,1,2,1.6,1.7,2.7C111.8,95.4,111.9,94.5,111.5,92.9z"/>
	<path class="st93" d="M111.4,99c-0.5-0.9-1.4-1.7-0.8-2.9C112,96.9,111.1,98.1,111.4,99z"/>
	<path class="st94" d="M103.1,102.6c0.3,0.3,0.6,0.6,0.9,0.9c0.1,1,0,2-0.7,2.8c-0.3-0.3-0.6-0.6-0.9-0.9
		C102.4,104.4,102.4,103.4,103.1,102.6z"/>
	<path class="st78" d="M73.7,119.2c0,1.3,0.1,2.7,0.1,4c-0.2,0.3-0.3,1.4-0.6,0.3c-0.4-1.3-0.1-2.9-0.1-4.3
		C73.3,119.2,73.5,119.2,73.7,119.2z"/>
	<path class="st95" d="M53.1,81.7c0.5-0.1,0.9-0.2,1.4-0.2c0.2,0.6,0.6,1.4-0.6,1.3c-0.5,0-1.3,0.5-1.5-0.5
		C52.4,82.2,52.9,81.9,53.1,81.7z"/>
	<path class="st96" d="M106.6,85.5c0,1.5,0.1,2.9,0.1,4.4C105.3,88.4,106.1,87,106.6,85.5z"/>
	<path class="st97" d="M75.1,113.7c-0.1,0.8,0.4,1.9-0.5,2.3c-0.7,0.4-0.7-0.5-0.9-1C74,114.5,74.4,114,75.1,113.7z"/>
	<path class="st98" d="M73,47.8c0,1.6,0.1,3.2,0.1,4.8C71.9,51.1,72,49.5,73,47.8z"/>
	<path class="st99" d="M38.6,45.9c-1-0.9-0.1-1.6,0.3-2.3c1.2,0.2,1.5,1.1,1.6,2.1C39.9,46.5,39.2,45.7,38.6,45.9z"/>
	<path class="st100" d="M34.6,58.2c-1,1.3-2.3,0.5-3.4,0.5c0,0-0.1-0.2-0.1-0.3c0-0.1,0.1-0.2,0.1-0.3
		C32.3,57.6,33.5,57.6,34.6,58.2z"/>
	<path class="st101" d="M38.6,45.9c0.5-1.1,1.3,0,1.9-0.2c0.1-0.1,0.2-0.1,0.4-0.1c0,0.3-0.1,0.6-0.1,1c-0.7,0.4,0.5,2.1-1.3,1.8
		c0-0.7,0-1.4-0.7-1.9C38.7,46.3,38.6,46.1,38.6,45.9z"/>
	<path class="st102" d="M89.2,114.4c-1,0.5-1.3,0.8-1.7,0.9c-0.7,0.1-0.6-0.4-0.5-0.8c0.1-0.5,0.6-0.7,1-0.5
		C88.3,113.9,88.6,114.1,89.2,114.4z"/>
	<path class="st103" d="M93.1,15.9c0.7,1.3,0.4,2.2,0.3,3.6C92.7,18.1,93,17.2,93.1,15.9z"/>
	<path class="st104" d="M108.8,75.6c0.1-1.3-0.6-2.7,0.7-3.8C109.2,73.1,109.8,74.5,108.8,75.6z"/>
	<path class="st105" d="M83.8,111.8c-0.2,0.3-0.4,0.7-0.6,0.8c-0.6,0.1-0.7-0.5-0.8-0.8c-0.2-0.5,0-1,0.5-1
		C83.2,110.8,83.5,111.4,83.8,111.8z"/>
	<path class="st63" d="M75.8,41c0.3-0.1,0.6-0.1,0.9-0.2c0.4,0.5,0.8,1,1.3,1.5c-0.6,0.2-1.3,0.5-1.9,0.7
		C75.9,42.3,75.8,41.7,75.8,41z"/>
	<path class="st106" d="M91.9,111.1c-0.3,0.5-0.7,0.4-1.1,0.2c-0.3-0.2-0.9-0.2-0.6-0.8c0.1-0.2,0.6-0.2,0.9-0.1
		C91.5,110.4,91.9,110.5,91.9,111.1z"/>
	<path class="st107" d="M106.7,49.9c-0.4,0-0.8,0-1.2,0.1c-0.3-0.1-0.4-0.2-0.4-0.4c0-0.2,0-0.3,0.1-0.3c0.2-0.6-0.3-1.7,0.5-1.6
		C106.3,47.8,106.9,48.9,106.7,49.9z"/>
	<path class="st108" d="M88.2,45.1c-0.2,0.5-0.6,0.7-1.1,0.6c-0.9,0-1-0.7-1-1.4c0.3-0.2,0.5-0.4,0.8-0.6
		C87.6,43.9,87.9,44.4,88.2,45.1z"/>
	<path class="st33" d="M108,52.7c1.2,0.8,0.8,1.7,0.2,2.7C107.4,54.6,107.7,53.7,108,52.7z"/>
	<path class="st109" d="M108,52.7c0.1,0.9,0.1,1.8,0.2,2.7c-0.1,0.3-0.2,0.5-0.2,0.8c-0.2-0.5-0.4-1-0.7-1.4c0-0.7,0.1-1.4,0.1-2.1
		C107.6,52.6,107.8,52.7,108,52.7z"/>
	<path class="st66" d="M105.2,49.3c0.1,0.2,0.2,0.5,0.3,0.7c-0.1,0.2-0.1,0.4-0.1,0.5c-0.1,0.5-0.1,1-0.3,2
		C104.5,51.1,104.4,50.1,105.2,49.3z"/>
	<path class="st63" d="M81,42.3c-1-0.3-2,1.4-3.1,0C78.9,42,79.9,41.4,81,42.3z"/>
	<path class="st110" d="M34.6,58.2c-1.1,0-2.3,0-3.4,0c0-0.2,0-0.4,0-0.6c1.2,0,2.3,0,3.5,0C34.6,57.8,34.6,58,34.6,58.2z"/>
	<path class="st111" d="M99.7,116.5c0.5,0,1,0,1.5-0.1c0.2,0.1,0.3,0.3,0.4,0.6c0,0.2-0.1,0.4-0.3,0.6c-0.1,0.1-0.1,0.3,0,0.4
		c-0.2-0.1-0.4-0.3-0.6-0.4c-0.3,0-0.5-0.1-0.7-0.2c-0.1-0.1-0.2-0.2-0.3-0.2C99.5,116.9,99.5,116.7,99.7,116.5z"/>
	<path class="st112" d="M99.1,117.8c-0.2,0.5-0.7,0.7-1.2,0.7c-0.1-0.1-0.3-0.1-0.4-0.2c0-0.1,0-0.3,0-0.4c0.1-0.3,0.3-0.5,0.5-0.7
		c0.1-0.1,0.3-0.1,0.4-0.2c0.3-0.1,0.6,0,0.8,0.1C99.4,117.4,99.4,117.6,99.1,117.8z"/>
	<path class="st113" d="M97.6,116.3c0.4,0.1,0.8,0.1,1.1,0.2c0,0.3,0,0.5-0.2,0.7l0,0c-0.2,0.1-0.5,0.2-0.7,0.3
		c-0.3,0-0.5-0.1-0.7-0.3C97.2,116.9,97.4,116.6,97.6,116.3z"/>
	<path class="st114" d="M97.1,117.2c0.3,0,0.6,0,0.9,0.1c0,0.2,0,0.5-0.1,0.7l0,0c-0.2,0.1-0.4,0.2-0.7,0.2c-0.2,0-0.5-0.1-0.6-0.3
		C96.7,117.6,96.9,117.4,97.1,117.2z"/>
	<path class="st115" d="M99.1,117.8c0-0.2,0-0.4,0-0.5c0.1-0.4,0.4-0.5,0.7-0.2l0.1,0c0,0.2,0,0.4,0.2,0.6
		C99.8,117.7,99.4,117.8,99.1,117.8z"/>
	<path class="st65" d="M100.1,117.7c-0.1-0.2-0.2-0.4-0.2-0.6c0.2,0.2,0.4,0.3,0.6,0.5C100.4,117.7,100.3,117.7,100.1,117.7z"/>
	<path d="M96.5,117.9c0.2,0,0.5,0,0.7,0.1c0.1,0.3,0,0.5-0.2,0.6C96.6,118.5,96.3,118.4,96.5,117.9z"/>
	<path class="st116" d="M97,118.5c0.1-0.2,0.2-0.4,0.2-0.6c0.2,0,0.4,0,0.6,0c0.1,0.2,0.1,0.4,0.1,0.6
		C97.6,118.5,97.3,118.5,97,118.5z"/>
	<path class="st117" d="M87.9,119.5c0,0.1,0,0.1,0,0.2c0,0.1-0.1,0.1-0.2,0.1c0-0.1,0-0.3,0-0.4C87.8,119.4,87.9,119.4,87.9,119.5z"
		/>
	<path class="st118" d="M104.6,111c0.4,0,0.9,0,1.3,0c0,0.5,0,1,0,1.5c-0.1,1.2,0.3,2.7-1.4,3.3c-1,0.3-1.9,0.2-2.8-0.4
		c-0.5-0.7-0.5-1.4,0.1-2.1c0.5-0.5,1-1.1,1.5-1.6C103.6,111,103.9,110.6,104.6,111z"/>
	<path class="st111" d="M101.8,115c0.9,0.1,1.8,0.1,2.7,0.2c0.8,0.3,1.5,0.7,0.7,1.7c-0.9,0.1-1.7,0.2-2.6,0.2
		c-0.2,0.2-0.4,0.3-0.7,0.3c-0.3,0-0.5-0.1-0.7-0.3c0-0.3,0-0.5-0.1-0.8c0-0.2,0-0.5,0-0.7C101,115.2,101.3,114.9,101.8,115z"/>
	<path class="st119" d="M105.2,117c-0.2-0.6-0.5-1.2-0.7-1.7c1.3-0.5,0.3-2.2,1.4-2.8C107.6,114.2,106,115.5,105.2,117z"/>
	<path class="st120" d="M101.8,117.2c0.3,0,0.5,0,0.8,0c-0.1,0.2-0.1,0.4,0,0.6c-0.2,0-0.5,0-0.7,0.1c-0.2-0.1-0.3-0.3-0.3-0.4
		C101.7,117.2,101.8,117.2,101.8,117.2z"/>
	<path class="st121" d="M51.7,96.6c0.2-1.8-0.7-2.9-2.5-2.8c-1.8,0.1-2,1.6-2,3c0,2.1,0,4.1,0,6.2c0,1.3-0.6,1.8-1.9,1.8
		c-1.2,0-1.6-0.6-1.6-1.7c0.1-2.7-0.2-5.5,0.2-8.2c0.6-4.4,5.1-6,8.4-3c1.4,1.3,1.9,0.9,2.9-0.2c1.5-1.5,3.4-1.8,5.4-1
		c1.8,0.8,2.9,2.3,3,4.3c0.1,2.6,0,5.2,0.1,7.9c0,1.2-0.4,1.9-1.8,1.9c-1.4,0-1.7-0.8-1.7-2c0-2.2,0-4.3,0-6.5
		c0-1.4-0.5-2.5-2.1-2.5c-1.5,0-2.2,1-2.5,2.3c-0.1,0.7-0.2,1.4-0.1,2c0.4,2.7-0.7,3.8-3.4,3.2C51,99.8,51.4,98.2,51.7,96.6z"/>
	<path class="st122" d="M51.7,96.6c0.1,1.6,0.1,3.2,0.2,4.8C50.5,99.8,50.8,98.2,51.7,96.6z"/>
	<path class="st123" d="M50.4,66.4c2.5-1.2,5.1-1.2,7.6,0C55.4,66.4,52.9,66.4,50.4,66.4z"/>
	<path class="st124" d="M33.2,56.1c-0.9,0-1.7-0.1-2.6-0.1c-0.3-0.6-1-1.1-0.8-1.9c1-0.8,2-0.2,3.1,0.1c0.3,0.2,0.5,0.4,0.6,0.7
		C33.7,55.3,33.6,55.8,33.2,56.1z"/>
	<path class="st125" d="M35.4,50c0.5-0.3,1-1.2,1.7-0.4c0.8,0.9-0.6,1.5-0.4,2.4c-0.5,0.6-1.1,0.7-1.8,0.6c-0.3-0.1-0.6-0.3-0.8-0.6
		c0-0.2,0-0.4,0-0.6C34.2,50.6,34.6,50.2,35.4,50z"/>
	<path class="st87" d="M34,51.9c0.2,0,0.4,0.1,0.6,0.1c0.6,0.5,1.3,1,0.7,2c0,0.2,0,0.5,0,0.7c-0.7,0.5-1.4,0.5-2.1,0l0-0.1
		c-0.6-0.6-0.5-1.3,0-1.9C33.5,52.5,33.7,52.2,34,51.9z"/>
	<path class="st126" d="M35.3,54c-0.2-0.7-0.5-1.3-0.7-2c0.7,0,1.4-0.1,2.1-0.1c0.2,0.2,0.5,0.4,0.7,0.5
		C37.1,53.6,36.4,54.1,35.3,54z"/>
	<path class="st127" d="M31.9,47.8c-0.2-0.8-0.5-1.7-0.7-2.5c0.4-0.9,1.2-0.9,1.9-1l0.1,0.2c0.6,0.6,0.6,1.3,0.1,2
		c-0.6,0.3-0.7,0.9-0.8,1.5C32.3,48.1,32,48.1,31.9,47.8z"/>
	<path class="st128" d="M33.2,52.8c0,0.6,0,1.3,0,1.9c-1.2,0-2.1-1.1-3.4-0.6C30.6,52.7,32.3,53.7,33.2,52.8z"/>
	<path class="st129" d="M33.1,44.3c-0.6,0.3-1.3,0.6-1.9,1c-0.2-0.1-0.4-0.1-0.7-0.1C30.8,42.9,32,43.8,33.1,44.3z"/>
	<path class="st130" d="M35.4,50c-0.5,0.5-0.9,0.9-1.4,1.4c-0.1-0.6-0.9-1.1-0.3-1.7C34.2,49.1,34.8,49.8,35.4,50z"/>
	<path class="st131" d="M33.3,46.4c0-0.7-0.1-1.3-0.1-2c0.2,0,0.4,0,0.7,0C34.3,45.3,35.1,46.2,33.3,46.4z"/>
	<path class="st132" d="M31.9,47.8c0.2,0.1,0.4,0.1,0.7,0.1c0,0.4,0.2,1-0.4,0.9C31.7,48.7,31,48.3,31.9,47.8z"/>
	<path class="st133" d="M31,49.5c0,0.1,0,0.2,0,0.2c0,0.1-0.2,0.1-0.2,0.1c-0.3-0.1-0.3-0.3,0-0.4C30.8,49.3,30.9,49.4,31,49.5z"/>
	<path class="st134" d="M82.6,51.3c-1.1-0.3-2.5-0.3-2.2-2.1c-0.6-0.6-1.1-1.2,0.1-1.7c0.8,0.1,1.3-0.4,1.9-0.8c0.9-0.2,1.6,0,1.9,1
		c0,1.2-0.1,2.4-0.7,3.5C83.3,51.6,83,51.6,82.6,51.3z"/>
	<path class="st135" d="M84,47.7c-0.5-0.8-1.4-0.6-2.1-0.6c-0.3-0.4-0.4-0.8-0.3-1.3c0.2-0.6,0.6-1,1.1-1.4c0.2,0,0.3,0,0.5,0
		c1.8,0,3.1,0.3,2.2,2.6c0,0.3-0.1,0.6-0.1,0.9C84.8,48.3,84.4,48.2,84,47.7z"/>
	<path class="st136" d="M84,47.7c0.4,0.1,0.9,0.2,1.3,0.2c0,0.9,0,1.8,0.1,2.7c-0.6,0.6-1,1.4-2,0.6C83.6,50.1,82.6,48.7,84,47.7z"
		/>
	<path class="st137" d="M78.7,51.4c-1.3,1.3-1.6-0.5-2.3-0.8c-0.3-0.9-0.5-1.9,0.6-2.5c0.3-0.1,0.7-0.1,1,0
		C79.5,48.9,78.8,50.2,78.7,51.4z"/>
	<path class="st138" d="M76.6,48.6c0.4,0.7,0.2,1.4-0.2,2c-0.7,0.2-1.3,0.5-2,0.7c0.2-1.1,0.5-2.3,0.7-3.4
		C75.9,47.5,76.3,48,76.6,48.6z"/>
	<path class="st139" d="M85.4,47c0.2-1.7-1.1-2-2.2-2.6c0.9-1.4,1.9,0.3,2.9-0.1c0.3,0.5,0.7,0.9,1,1.4c-0.3,0.5-0.7,0.9-1,1.4
		c0,0-0.3,0-0.3,0L85.4,47z"/>
	<path class="st140" d="M78.7,51.4c-0.5-1,0.6-2.8-1.6-2.9c-0.1-0.6,0.2-0.9,0.8-1c0.5-0.2,1-0.1,1.4,0.3c0.2,0.5,0.3,1,0,1.5
		C79,49.9,79.5,50.9,78.7,51.4z"/>
	<path class="st141" d="M83.4,51.2c0.9,0.4,1.3-0.5,2-0.6c0,1.5-1.6,1.4-2.4,2.1c-0.2,0.2-0.3-0.9-0.4-1.4
		C82.9,51.3,83.1,51.3,83.4,51.2z"/>
	<path class="st142" d="M79.3,49.2c0-0.5,0-1-0.1-1.4c-0.1-1,0.5-1,1.2-0.8c0.2,0.2,0.3,0.3,0.3,0.5c0,0.2-0.1,0.3-0.1,0.3
		c-0.7,0.4-0.1,1-0.2,1.5C80.1,49.2,79.7,49.2,79.3,49.2z"/>
	<path class="st69" d="M82.7,44.5c-0.1,0.6-0.2,1.2-0.8,1.5c-0.4,0.3-0.9,0.5-1.4,0.5c-0.5,0-1-0.2-1.3-0.6c0.2-1.8,1.7-1.2,2.7-1.4
		C82.2,44.4,82.5,44.4,82.7,44.5z"/>
	<path class="st143" d="M79.2,45.8c0.5,0,1,0,1.5,0.1c0.3,0.5,0.2,0.9-0.1,1.3c-0.5,0-1,0.2-1.3,0.7c-0.5,0-1,0-1.4,0
		c-0.2-0.1-0.3-0.3-0.2-0.4c0.1-0.1,0.1-0.2,0.2-0.2C77.8,46.3,78.3,45.8,79.2,45.8z"/>
	<path class="st144" d="M77.8,47.2c0,0.2,0,0.4,0,0.6c-0.2,0.2-0.5,0.5-0.7,0.7c-0.2,0-0.4,0.1-0.6,0.1c-0.5-0.2-1-0.5-1.4-0.7
		c0-0.2,0-0.5,0-0.7c0.4-0.4,0.8-0.7,1.4-0.7C77,46.7,77.4,47,77.8,47.2z"/>
	<path class="st145" d="M76.5,46.5c-0.4,0.5-0.8,0.7-1.4,0.7C75,47,75,46.7,74.9,46.5c0.4-0.6,0.8-1.3,1.5-1.1
		C77.1,45.5,76.5,46.1,76.5,46.5z"/>
	<path class="st146" d="M39.4,48.4c1.1-0.1,0.4-1.5,1.3-1.8c0,1.8,0,3.6,0,5.4C40.3,50.8,39.9,49.6,39.4,48.4z"/>
	<path class="st147" d="M33.2,54.8c0.7,0,1.4,0,2.1,0c0.1,0.6,0.1,1.3,0.2,1.9c-0.8-0.2-1.5-0.4-2.3-0.6
		C33.2,55.7,33.2,55.2,33.2,54.8z"/>
	<path class="st148" d="M104.6,111c-0.4,0.2-0.8,0.3-1.3,0.5c-0.4-0.6-1.5-0.3-1.6-1.2c0.3-0.7,0.9-0.9,1.5-0.9
		C103.8,109.9,104.5,110.1,104.6,111z"/>
	<path class="st149" d="M101.8,115c-0.2,0.2-0.5,0.5-0.7,0.7c-2.4-0.4-1-1.7-0.6-2.7c0.5,0,0.9,0.1,1.4,0.1
		C101.8,113.8,101.8,114.4,101.8,115z"/>
	<path class="st116" d="M99.8,117.1c-0.2,0.1-0.5,0.1-0.7,0.2c-0.2-0.1-0.4-0.1-0.6-0.1c0.1-0.2,0.2-0.5,0.2-0.7c0.3,0,0.6,0,0.9,0
		C99.8,116.7,99.9,116.9,99.8,117.1z"/>
	<path class="st150" d="M101.8,117.2c0,0.2,0.1,0.5,0.1,0.7c-0.3-0.1-0.5-0.2-0.8-0.3c0-0.1,0-0.2,0-0.3
		C101.4,117.2,101.6,117.2,101.8,117.2z"/>
	<path class="st116" d="M97.9,117.9c0-0.2,0-0.5,0.1-0.7c0.2,0,0.4,0,0.6,0C98.3,117.5,98.1,117.7,97.9,117.9z"/>
	<path class="st151" d="M80.6,47.1c0-0.4,0.1-0.8,0.1-1.3c0.4,0,0.8,0.1,1.2,0.1c0,0.4,0,0.8,0,1.1c0,0.4,0.1,0.8,0.1,1.2
		c-0.5-0.2-1-0.3-1.5-0.5C80.6,47.6,80.6,47.3,80.6,47.1z"/>
</g>
<text transform="matrix(0.6829 0.2772 -0.3761 0.9266 329.1931 64.3469)" class="st152 st153 st154">【非公式】</text>
<text transform="matrix(0.6829 0.2772 -0.3761 0.9266 329.1931 64.3469)" class="st155 st153 st154">【非公式】</text>
<text transform="matrix(1 0 0 1 130.0002 69.3471)" class="st156 st157 st158">Unity JP</text>
<text transform="matrix(1 0 0 1 130.0002 69.3471)" class="st159 st157 st158">Unity JP</text>
<text transform="matrix(1 0 0 1 131.0001 121.3476)" class="st156 st157 st158">Mastodon</text>
<text transform="matrix(1 0 0 1 131.0001 121.3476)" class="st159 st157 st158">Mastodon</text>
</svg>
